<svg width="1280" height="2560" viewBox="0 0 1280 2560" fill="none" xmlns="http://www.w3.org/2000/svg">
<g clip-path="url(#clip0_412_1579)">
<path d="M71.1111 0H0V71.1111H71.1111V0Z" stroke="#F8E71C" stroke-width="0.8"/>
<path d="M142.222 0H71.1111V71.1111H142.222V0Z" stroke="#F8E71C" stroke-width="0.8"/>
<path d="M213.333 0H142.222V71.1111H213.333V0Z" stroke="#F8E71C" stroke-width="0.8"/>
<path d="M284.444 0H213.333V71.1111H284.444V0Z" stroke="#F8E71C" stroke-width="0.8"/>
<path d="M355.555 0H284.444V71.1111H355.555V0Z" stroke="#F8E71C" stroke-width="0.8"/>
<path d="M426.667 0H355.556V71.1111H426.667V0Z" stroke="#F8E71C" stroke-width="0.8"/>
<path d="M497.778 0H426.667V71.1111H497.778V0Z" stroke="#F8E71C" stroke-width="0.8"/>
<path d="M568.889 0H497.778V71.1111H568.889V0Z" stroke="#F8E71C" stroke-width="0.8"/>
<path d="M640.001 0H568.889V71.1111H640.001V0Z" stroke="#F8E71C" stroke-width="0.8"/>
<path d="M711.111 0H640V71.1111H711.111V0Z" stroke="#F8E71C" stroke-width="0.8"/>
<path d="M782.222 0H711.111V71.1111H782.222V0Z" stroke="#F8E71C" stroke-width="0.8"/>
<path d="M853.333 0H782.222V71.1111H853.333V0Z" stroke="#F8E71C" stroke-width="0.8"/>
<path d="M924.445 0H853.333V71.1111H924.445V0Z" stroke="#F8E71C" stroke-width="0.8"/>
<path d="M995.555 0H924.444V71.1111H995.555V0Z" stroke="#F8E71C" stroke-width="0.8"/>
<path d="M1066.67 0H995.556V71.1111H1066.67V0Z" stroke="#F8E71C" stroke-width="0.8"/>
<path d="M1137.78 0H1066.67V71.1111H1137.78V0Z" stroke="#F8E71C" stroke-width="0.8"/>
<path d="M1208.89 0H1137.78V71.1111H1208.89V0Z" stroke="#F8E71C" stroke-width="0.8"/>
<path d="M1280 0H1208.89V71.1111H1280V0Z" stroke="#F8E71C" stroke-width="0.8"/>
<path d="M1351.11 0H1280V71.1111H1351.11V0Z" stroke="#F8E71C" stroke-width="0.8"/>
<path d="M71.1111 71.1108H0V142.222H71.1111V71.1108Z" stroke="#F8E71C" stroke-width="0.8"/>
<path d="M142.222 71.1108H71.1111V142.222H142.222V71.1108Z" stroke="#F8E71C" stroke-width="0.8"/>
<path d="M213.333 71.1108H142.222V142.222H213.333V71.1108Z" stroke="#F8E71C" stroke-width="0.8"/>
<path d="M284.444 71.1108H213.333V142.222H284.444V71.1108Z" stroke="#F8E71C" stroke-width="0.8"/>
<path d="M355.555 71.1108H284.444V142.222H355.555V71.1108Z" stroke="#F8E71C" stroke-width="0.8"/>
<path d="M426.667 71.1108H355.556V142.222H426.667V71.1108Z" stroke="#F8E71C" stroke-width="0.8"/>
<path d="M497.778 71.1108H426.667V142.222H497.778V71.1108Z" stroke="#F8E71C" stroke-width="0.8"/>
<path d="M568.889 71.1108H497.778V142.222H568.889V71.1108Z" stroke="#F8E71C" stroke-width="0.8"/>
<path d="M640.001 71.1108H568.889V142.222H640.001V71.1108Z" stroke="#F8E71C" stroke-width="0.8"/>
<path d="M711.111 71.1108H640V142.222H711.111V71.1108Z" stroke="#F8E71C" stroke-width="0.8"/>
<path d="M782.222 71.1108H711.111V142.222H782.222V71.1108Z" stroke="#F8E71C" stroke-width="0.8"/>
<path d="M853.333 71.1108H782.222V142.222H853.333V71.1108Z" stroke="#F8E71C" stroke-width="0.8"/>
<path d="M924.445 71.1108H853.333V142.222H924.445V71.1108Z" stroke="#F8E71C" stroke-width="0.8"/>
<path d="M995.555 71.1108H924.444V142.222H995.555V71.1108Z" stroke="#F8E71C" stroke-width="0.8"/>
<path d="M1066.67 71.1108H995.556V142.222H1066.67V71.1108Z" stroke="#F8E71C" stroke-width="0.8"/>
<path d="M1137.78 71.1108H1066.67V142.222H1137.78V71.1108Z" stroke="#F8E71C" stroke-width="0.8"/>
<path d="M1208.89 71.1108H1137.78V142.222H1208.89V71.1108Z" stroke="#F8E71C" stroke-width="0.8"/>
<path d="M1280 71.1108H1208.89V142.222H1280V71.1108Z" stroke="#F8E71C" stroke-width="0.8"/>
<path d="M1351.11 71.1108H1280V142.222H1351.11V71.1108Z" stroke="#F8E71C" stroke-width="0.8"/>
<path d="M71.1111 142.222H0V213.333H71.1111V142.222Z" stroke="#F8E71C" stroke-width="0.8"/>
<path d="M142.222 142.222H71.1111V213.333H142.222V142.222Z" stroke="#F8E71C" stroke-width="0.8"/>
<path d="M213.333 142.222H142.222V213.333H213.333V142.222Z" stroke="#F8E71C" stroke-width="0.8"/>
<path d="M284.444 142.222H213.333V213.333H284.444V142.222Z" stroke="#F8E71C" stroke-width="0.8"/>
<path d="M355.555 142.222H284.444V213.333H355.555V142.222Z" stroke="#F8E71C" stroke-width="0.8"/>
<path d="M426.667 142.222H355.556V213.333H426.667V142.222Z" stroke="#F8E71C" stroke-width="0.8"/>
<path d="M497.778 142.222H426.667V213.333H497.778V142.222Z" stroke="#F8E71C" stroke-width="0.8"/>
<path d="M568.889 142.222H497.778V213.333H568.889V142.222Z" stroke="#F8E71C" stroke-width="0.8"/>
<path d="M640.001 142.222H568.889V213.333H640.001V142.222Z" stroke="#F8E71C" stroke-width="0.8"/>
<path d="M711.111 142.222H640V213.333H711.111V142.222Z" stroke="#F8E71C" stroke-width="0.8"/>
<path d="M782.222 142.222H711.111V213.333H782.222V142.222Z" stroke="#F8E71C" stroke-width="0.8"/>
<path d="M853.333 142.222H782.222V213.333H853.333V142.222Z" stroke="#F8E71C" stroke-width="0.8"/>
<path d="M924.445 142.222H853.333V213.333H924.445V142.222Z" stroke="#F8E71C" stroke-width="0.8"/>
<path d="M995.555 142.222H924.444V213.333H995.555V142.222Z" stroke="#F8E71C" stroke-width="0.8"/>
<path d="M1066.67 142.222H995.556V213.333H1066.67V142.222Z" stroke="#F8E71C" stroke-width="0.8"/>
<path d="M1137.78 142.222H1066.67V213.333H1137.78V142.222Z" stroke="#F8E71C" stroke-width="0.8"/>
<path d="M1208.89 142.222H1137.78V213.333H1208.89V142.222Z" stroke="#F8E71C" stroke-width="0.8"/>
<path d="M1280 142.222H1208.89V213.333H1280V142.222Z" stroke="#F8E71C" stroke-width="0.8"/>
<path d="M1351.11 142.222H1280V213.333H1351.11V142.222Z" stroke="#F8E71C" stroke-width="0.8"/>
<path d="M71.1111 213.333H0V284.444H71.1111V213.333Z" stroke="#F8E71C" stroke-width="0.8"/>
<path d="M142.222 213.333H71.1111V284.444H142.222V213.333Z" stroke="#F8E71C" stroke-width="0.8"/>
<path d="M213.333 213.333H142.222V284.444H213.333V213.333Z" stroke="#F8E71C" stroke-width="0.8"/>
<path d="M284.444 213.333H213.333V284.444H284.444V213.333Z" stroke="#F8E71C" stroke-width="0.8"/>
<path d="M355.555 213.333H284.444V284.444H355.555V213.333Z" stroke="#F8E71C" stroke-width="0.8"/>
<path d="M426.667 213.333H355.556V284.444H426.667V213.333Z" stroke="#F8E71C" stroke-width="0.8"/>
<path d="M497.778 213.333H426.667V284.444H497.778V213.333Z" stroke="#F8E71C" stroke-width="0.8"/>
<path d="M568.889 213.333H497.778V284.444H568.889V213.333Z" stroke="#F8E71C" stroke-width="0.8"/>
<path d="M640.001 213.333H568.889V284.444H640.001V213.333Z" stroke="#F8E71C" stroke-width="0.8"/>
<path d="M711.111 213.333H640V284.444H711.111V213.333Z" stroke="#F8E71C" stroke-width="0.8"/>
<path d="M782.222 213.333H711.111V284.444H782.222V213.333Z" stroke="#F8E71C" stroke-width="0.8"/>
<path d="M853.333 213.333H782.222V284.444H853.333V213.333Z" stroke="#F8E71C" stroke-width="0.8"/>
<path d="M924.445 213.333H853.333V284.444H924.445V213.333Z" stroke="#F8E71C" stroke-width="0.8"/>
<path d="M995.555 213.333H924.444V284.444H995.555V213.333Z" stroke="#F8E71C" stroke-width="0.8"/>
<path d="M1066.67 213.333H995.556V284.444H1066.67V213.333Z" stroke="#F8E71C" stroke-width="0.8"/>
<path d="M1137.78 213.333H1066.67V284.444H1137.78V213.333Z" stroke="#F8E71C" stroke-width="0.8"/>
<path d="M1208.89 213.333H1137.78V284.444H1208.89V213.333Z" stroke="#F8E71C" stroke-width="0.8"/>
<path d="M1280 213.333H1208.89V284.444H1280V213.333Z" stroke="#F8E71C" stroke-width="0.8"/>
<path d="M1351.11 213.333H1280V284.444H1351.11V213.333Z" stroke="#F8E71C" stroke-width="0.8"/>
<path d="M71.1111 284.444H0V355.555H71.1111V284.444Z" stroke="#F8E71C" stroke-width="0.8"/>
<path d="M142.222 284.444H71.1111V355.555H142.222V284.444Z" stroke="#F8E71C" stroke-width="0.8"/>
<path d="M213.333 284.444H142.222V355.555H213.333V284.444Z" stroke="#F8E71C" stroke-width="0.8"/>
<path d="M284.444 284.444H213.333V355.555H284.444V284.444Z" stroke="#F8E71C" stroke-width="0.8"/>
<path d="M355.555 284.444H284.444V355.555H355.555V284.444Z" stroke="#F8E71C" stroke-width="0.8"/>
<path d="M426.667 284.444H355.556V355.555H426.667V284.444Z" stroke="#F8E71C" stroke-width="0.8"/>
<path d="M497.778 284.444H426.667V355.555H497.778V284.444Z" stroke="#F8E71C" stroke-width="0.8"/>
<path d="M568.889 284.444H497.778V355.555H568.889V284.444Z" stroke="#F8E71C" stroke-width="0.8"/>
<path d="M640.001 284.444H568.889V355.555H640.001V284.444Z" stroke="#F8E71C" stroke-width="0.8"/>
<path d="M711.111 284.444H640V355.555H711.111V284.444Z" stroke="#F8E71C" stroke-width="0.8"/>
<path d="M782.222 284.444H711.111V355.555H782.222V284.444Z" stroke="#F8E71C" stroke-width="0.8"/>
<path d="M853.333 284.444H782.222V355.555H853.333V284.444Z" stroke="#F8E71C" stroke-width="0.8"/>
<path d="M924.445 284.444H853.333V355.555H924.445V284.444Z" stroke="#F8E71C" stroke-width="0.8"/>
<path d="M995.555 284.444H924.444V355.555H995.555V284.444Z" stroke="#F8E71C" stroke-width="0.8"/>
<path d="M1066.67 284.444H995.556V355.555H1066.67V284.444Z" stroke="#F8E71C" stroke-width="0.8"/>
<path d="M1137.78 284.444H1066.67V355.555H1137.78V284.444Z" stroke="#F8E71C" stroke-width="0.8"/>
<path d="M1208.89 284.444H1137.78V355.555H1208.89V284.444Z" stroke="#F8E71C" stroke-width="0.8"/>
<path d="M1280 284.444H1208.89V355.555H1280V284.444Z" stroke="#F8E71C" stroke-width="0.8"/>
<path d="M1351.11 284.444H1280V355.555H1351.11V284.444Z" stroke="#F8E71C" stroke-width="0.8"/>
<path d="M71.1111 355.556H0V426.667H71.1111V355.556Z" stroke="#F8E71C" stroke-width="0.8"/>
<path d="M142.222 355.556H71.1111V426.667H142.222V355.556Z" stroke="#F8E71C" stroke-width="0.8"/>
<path d="M213.333 355.556H142.222V426.667H213.333V355.556Z" stroke="#F8E71C" stroke-width="0.8"/>
<path d="M284.444 355.556H213.333V426.667H284.444V355.556Z" stroke="#F8E71C" stroke-width="0.8"/>
<path d="M355.555 355.556H284.444V426.667H355.555V355.556Z" stroke="#F8E71C" stroke-width="0.8"/>
<path d="M426.667 355.556H355.556V426.667H426.667V355.556Z" stroke="#F8E71C" stroke-width="0.8"/>
<path d="M497.778 355.556H426.667V426.667H497.778V355.556Z" stroke="#F8E71C" stroke-width="0.8"/>
<path d="M568.889 355.556H497.778V426.667H568.889V355.556Z" stroke="#F8E71C" stroke-width="0.8"/>
<path d="M640.001 355.556H568.889V426.667H640.001V355.556Z" stroke="#F8E71C" stroke-width="0.8"/>
<path d="M711.111 355.556H640V426.667H711.111V355.556Z" stroke="#F8E71C" stroke-width="0.8"/>
<path d="M782.222 355.556H711.111V426.667H782.222V355.556Z" stroke="#F8E71C" stroke-width="0.8"/>
<path d="M853.333 355.556H782.222V426.667H853.333V355.556Z" stroke="#F8E71C" stroke-width="0.8"/>
<path d="M924.445 355.556H853.333V426.667H924.445V355.556Z" stroke="#F8E71C" stroke-width="0.8"/>
<path d="M995.555 355.556H924.444V426.667H995.555V355.556Z" stroke="#F8E71C" stroke-width="0.8"/>
<path d="M1066.67 355.556H995.556V426.667H1066.67V355.556Z" stroke="#F8E71C" stroke-width="0.8"/>
<path d="M1137.78 355.556H1066.67V426.667H1137.78V355.556Z" stroke="#F8E71C" stroke-width="0.8"/>
<path d="M1208.89 355.556H1137.78V426.667H1208.89V355.556Z" stroke="#F8E71C" stroke-width="0.8"/>
<path d="M1280 355.556H1208.89V426.667H1280V355.556Z" stroke="#F8E71C" stroke-width="0.8"/>
<path d="M1351.11 355.556H1280V426.667H1351.11V355.556Z" stroke="#F8E71C" stroke-width="0.8"/>
<path d="M71.1111 426.667H0V497.778H71.1111V426.667Z" stroke="#F8E71C" stroke-width="0.8"/>
<path d="M142.222 426.667H71.1111V497.778H142.222V426.667Z" stroke="#F8E71C" stroke-width="0.8"/>
<path d="M213.333 426.667H142.222V497.778H213.333V426.667Z" stroke="#F8E71C" stroke-width="0.8"/>
<path d="M284.444 426.667H213.333V497.778H284.444V426.667Z" stroke="#F8E71C" stroke-width="0.8"/>
<path d="M355.555 426.667H284.444V497.778H355.555V426.667Z" stroke="#F8E71C" stroke-width="0.8"/>
<path d="M426.667 426.667H355.556V497.778H426.667V426.667Z" stroke="#F8E71C" stroke-width="0.8"/>
<path d="M497.778 426.667H426.667V497.778H497.778V426.667Z" stroke="#F8E71C" stroke-width="0.8"/>
<path d="M568.889 426.667H497.778V497.778H568.889V426.667Z" stroke="#F8E71C" stroke-width="0.8"/>
<path d="M640.001 426.667H568.889V497.778H640.001V426.667Z" stroke="#F8E71C" stroke-width="0.8"/>
<path d="M711.111 426.667H640V497.778H711.111V426.667Z" stroke="#F8E71C" stroke-width="0.8"/>
<path d="M782.222 426.667H711.111V497.778H782.222V426.667Z" stroke="#F8E71C" stroke-width="0.8"/>
<path d="M853.333 426.667H782.222V497.778H853.333V426.667Z" stroke="#F8E71C" stroke-width="0.8"/>
<path d="M924.445 426.667H853.333V497.778H924.445V426.667Z" stroke="#F8E71C" stroke-width="0.8"/>
<path d="M995.555 426.667H924.444V497.778H995.555V426.667Z" stroke="#F8E71C" stroke-width="0.8"/>
<path d="M1066.67 426.667H995.556V497.778H1066.67V426.667Z" stroke="#F8E71C" stroke-width="0.8"/>
<path d="M1137.78 426.667H1066.67V497.778H1137.78V426.667Z" stroke="#F8E71C" stroke-width="0.8"/>
<path d="M1208.89 426.667H1137.78V497.778H1208.89V426.667Z" stroke="#F8E71C" stroke-width="0.8"/>
<path d="M1280 426.667H1208.89V497.778H1280V426.667Z" stroke="#F8E71C" stroke-width="0.8"/>
<path d="M1351.11 426.667H1280V497.778H1351.11V426.667Z" stroke="#F8E71C" stroke-width="0.8"/>
<path d="M71.1111 497.778H0V568.889H71.1111V497.778Z" stroke="#F8E71C" stroke-width="0.8"/>
<path d="M142.222 497.778H71.1111V568.889H142.222V497.778Z" stroke="#F8E71C" stroke-width="0.8"/>
<path d="M213.333 497.778H142.222V568.889H213.333V497.778Z" stroke="#F8E71C" stroke-width="0.8"/>
<path d="M284.444 497.778H213.333V568.889H284.444V497.778Z" stroke="#F8E71C" stroke-width="0.8"/>
<path d="M355.555 497.778H284.444V568.889H355.555V497.778Z" stroke="#F8E71C" stroke-width="0.8"/>
<path d="M426.667 497.778H355.556V568.889H426.667V497.778Z" stroke="#F8E71C" stroke-width="0.8"/>
<path d="M497.778 497.778H426.667V568.889H497.778V497.778Z" stroke="#F8E71C" stroke-width="0.8"/>
<path d="M568.889 497.778H497.778V568.889H568.889V497.778Z" stroke="#F8E71C" stroke-width="0.8"/>
<path d="M640.001 497.778H568.889V568.889H640.001V497.778Z" stroke="#F8E71C" stroke-width="0.8"/>
<path d="M711.111 497.778H640V568.889H711.111V497.778Z" stroke="#F8E71C" stroke-width="0.8"/>
<path d="M782.222 497.778H711.111V568.889H782.222V497.778Z" stroke="#F8E71C" stroke-width="0.8"/>
<path d="M853.333 497.778H782.222V568.889H853.333V497.778Z" stroke="#F8E71C" stroke-width="0.8"/>
<path d="M924.445 497.778H853.333V568.889H924.445V497.778Z" stroke="#F8E71C" stroke-width="0.8"/>
<path d="M995.555 497.778H924.444V568.889H995.555V497.778Z" stroke="#F8E71C" stroke-width="0.8"/>
<path d="M1066.67 497.778H995.556V568.889H1066.67V497.778Z" stroke="#F8E71C" stroke-width="0.8"/>
<path d="M1137.78 497.778H1066.67V568.889H1137.78V497.778Z" stroke="#F8E71C" stroke-width="0.8"/>
<path d="M1208.89 497.778H1137.78V568.889H1208.89V497.778Z" stroke="#F8E71C" stroke-width="0.8"/>
<path d="M1280 497.778H1208.89V568.889H1280V497.778Z" stroke="#F8E71C" stroke-width="0.8"/>
<path d="M1351.11 497.778H1280V568.889H1351.11V497.778Z" stroke="#F8E71C" stroke-width="0.8"/>
<path d="M71.1111 568.889H0V640.001H71.1111V568.889Z" stroke="#F8E71C" stroke-width="0.8"/>
<path d="M142.222 568.889H71.1111V640.001H142.222V568.889Z" stroke="#F8E71C" stroke-width="0.8"/>
<path d="M213.333 568.889H142.222V640.001H213.333V568.889Z" stroke="#F8E71C" stroke-width="0.8"/>
<path d="M284.444 568.889H213.333V640.001H284.444V568.889Z" stroke="#F8E71C" stroke-width="0.8"/>
<path d="M355.555 568.889H284.444V640.001H355.555V568.889Z" stroke="#F8E71C" stroke-width="0.8"/>
<path d="M426.667 568.889H355.556V640.001H426.667V568.889Z" stroke="#F8E71C" stroke-width="0.8"/>
<path d="M497.778 568.889H426.667V640.001H497.778V568.889Z" stroke="#F8E71C" stroke-width="0.8"/>
<path d="M568.889 568.889H497.778V640.001H568.889V568.889Z" stroke="#F8E71C" stroke-width="0.8"/>
<path d="M640.001 568.889H568.889V640.001H640.001V568.889Z" stroke="#F8E71C" stroke-width="0.8"/>
<path d="M711.111 568.889H640V640.001H711.111V568.889Z" stroke="#F8E71C" stroke-width="0.8"/>
<path d="M782.222 568.889H711.111V640.001H782.222V568.889Z" stroke="#F8E71C" stroke-width="0.8"/>
<path d="M853.333 568.889H782.222V640.001H853.333V568.889Z" stroke="#F8E71C" stroke-width="0.8"/>
<path d="M924.445 568.889H853.333V640.001H924.445V568.889Z" stroke="#F8E71C" stroke-width="0.8"/>
<path d="M995.555 568.889H924.444V640.001H995.555V568.889Z" stroke="#F8E71C" stroke-width="0.8"/>
<path d="M1066.67 568.889H995.556V640.001H1066.67V568.889Z" stroke="#F8E71C" stroke-width="0.8"/>
<path d="M1137.78 568.889H1066.67V640.001H1137.78V568.889Z" stroke="#F8E71C" stroke-width="0.8"/>
<path d="M1208.89 568.889H1137.78V640.001H1208.89V568.889Z" stroke="#F8E71C" stroke-width="0.8"/>
<path d="M1280 568.889H1208.89V640.001H1280V568.889Z" stroke="#F8E71C" stroke-width="0.8"/>
<path d="M1351.11 568.889H1280V640.001H1351.11V568.889Z" stroke="#F8E71C" stroke-width="0.8"/>
<path d="M71.1111 640H0V711.111H71.1111V640Z" stroke="#F8E71C" stroke-width="0.8"/>
<path d="M142.222 640H71.1111V711.111H142.222V640Z" stroke="#F8E71C" stroke-width="0.8"/>
<path d="M213.333 640H142.222V711.111H213.333V640Z" stroke="#F8E71C" stroke-width="0.8"/>
<path d="M284.444 640H213.333V711.111H284.444V640Z" stroke="#F8E71C" stroke-width="0.8"/>
<path d="M355.555 640H284.444V711.111H355.555V640Z" stroke="#F8E71C" stroke-width="0.8"/>
<path d="M426.667 640H355.556V711.111H426.667V640Z" stroke="#F8E71C" stroke-width="0.8"/>
<path d="M497.778 640H426.667V711.111H497.778V640Z" stroke="#F8E71C" stroke-width="0.8"/>
<path d="M568.889 640H497.778V711.111H568.889V640Z" stroke="#F8E71C" stroke-width="0.8"/>
<path d="M640.001 640H568.889V711.111H640.001V640Z" stroke="#F8E71C" stroke-width="0.8"/>
<path d="M711.111 640H640V711.111H711.111V640Z" stroke="#F8E71C" stroke-width="0.8"/>
<path d="M782.222 640H711.111V711.111H782.222V640Z" stroke="#F8E71C" stroke-width="0.8"/>
<path d="M853.333 640H782.222V711.111H853.333V640Z" stroke="#F8E71C" stroke-width="0.8"/>
<path d="M924.445 640H853.333V711.111H924.445V640Z" stroke="#F8E71C" stroke-width="0.8"/>
<path d="M995.555 640H924.444V711.111H995.555V640Z" stroke="#F8E71C" stroke-width="0.8"/>
<path d="M1066.67 640H995.556V711.111H1066.67V640Z" stroke="#F8E71C" stroke-width="0.8"/>
<path d="M1137.78 640H1066.67V711.111H1137.78V640Z" stroke="#F8E71C" stroke-width="0.8"/>
<path d="M1208.89 640H1137.78V711.111H1208.89V640Z" stroke="#F8E71C" stroke-width="0.8"/>
<path d="M1280 640H1208.89V711.111H1280V640Z" stroke="#F8E71C" stroke-width="0.8"/>
<path d="M1351.11 640H1280V711.111H1351.11V640Z" stroke="#F8E71C" stroke-width="0.8"/>
<path d="M71.1111 711.111H0V782.222H71.1111V711.111Z" stroke="#F8E71C" stroke-width="0.8"/>
<path d="M142.222 711.111H71.1111V782.222H142.222V711.111Z" stroke="#F8E71C" stroke-width="0.8"/>
<path d="M213.333 711.111H142.222V782.222H213.333V711.111Z" stroke="#F8E71C" stroke-width="0.8"/>
<path d="M284.444 711.111H213.333V782.222H284.444V711.111Z" stroke="#F8E71C" stroke-width="0.8"/>
<path d="M355.555 711.111H284.444V782.222H355.555V711.111Z" stroke="#F8E71C" stroke-width="0.8"/>
<path d="M426.667 711.111H355.556V782.222H426.667V711.111Z" stroke="#F8E71C" stroke-width="0.8"/>
<path d="M497.778 711.111H426.667V782.222H497.778V711.111Z" stroke="#F8E71C" stroke-width="0.8"/>
<path d="M568.889 711.111H497.778V782.222H568.889V711.111Z" stroke="#F8E71C" stroke-width="0.8"/>
<path d="M640.001 711.111H568.889V782.222H640.001V711.111Z" stroke="#F8E71C" stroke-width="0.8"/>
<path d="M711.111 711.111H640V782.222H711.111V711.111Z" stroke="#F8E71C" stroke-width="0.8"/>
<path d="M782.222 711.111H711.111V782.222H782.222V711.111Z" stroke="#F8E71C" stroke-width="0.8"/>
<path d="M853.333 711.111H782.222V782.222H853.333V711.111Z" stroke="#F8E71C" stroke-width="0.8"/>
<path d="M924.445 711.111H853.333V782.222H924.445V711.111Z" stroke="#F8E71C" stroke-width="0.8"/>
<path d="M995.555 711.111H924.444V782.222H995.555V711.111Z" stroke="#F8E71C" stroke-width="0.8"/>
<path d="M1066.67 711.111H995.556V782.222H1066.67V711.111Z" stroke="#F8E71C" stroke-width="0.8"/>
<path d="M1137.78 711.111H1066.67V782.222H1137.78V711.111Z" stroke="#F8E71C" stroke-width="0.8"/>
<path d="M1208.89 711.111H1137.78V782.222H1208.89V711.111Z" stroke="#F8E71C" stroke-width="0.8"/>
<path d="M1280 711.111H1208.89V782.222H1280V711.111Z" stroke="#F8E71C" stroke-width="0.8"/>
<path d="M1351.11 711.111H1280V782.222H1351.11V711.111Z" stroke="#F8E71C" stroke-width="0.8"/>
<path d="M71.1111 782.222H0V853.333H71.1111V782.222Z" stroke="#F8E71C" stroke-width="0.8"/>
<path d="M142.222 782.222H71.1111V853.333H142.222V782.222Z" stroke="#F8E71C" stroke-width="0.8"/>
<path d="M213.333 782.222H142.222V853.333H213.333V782.222Z" stroke="#F8E71C" stroke-width="0.8"/>
<path d="M284.444 782.222H213.333V853.333H284.444V782.222Z" stroke="#F8E71C" stroke-width="0.8"/>
<path d="M355.555 782.222H284.444V853.333H355.555V782.222Z" stroke="#F8E71C" stroke-width="0.8"/>
<path d="M426.667 782.222H355.556V853.333H426.667V782.222Z" stroke="#F8E71C" stroke-width="0.8"/>
<path d="M497.778 782.222H426.667V853.333H497.778V782.222Z" stroke="#F8E71C" stroke-width="0.8"/>
<path d="M568.889 782.222H497.778V853.333H568.889V782.222Z" stroke="#F8E71C" stroke-width="0.8"/>
<path d="M640.001 782.222H568.889V853.333H640.001V782.222Z" stroke="#F8E71C" stroke-width="0.8"/>
<path d="M711.111 782.222H640V853.333H711.111V782.222Z" stroke="#F8E71C" stroke-width="0.8"/>
<path d="M782.222 782.222H711.111V853.333H782.222V782.222Z" stroke="#F8E71C" stroke-width="0.8"/>
<path d="M853.333 782.222H782.222V853.333H853.333V782.222Z" stroke="#F8E71C" stroke-width="0.8"/>
<path d="M924.445 782.222H853.333V853.333H924.445V782.222Z" stroke="#F8E71C" stroke-width="0.8"/>
<path d="M995.555 782.222H924.444V853.333H995.555V782.222Z" stroke="#F8E71C" stroke-width="0.8"/>
<path d="M1066.67 782.222H995.556V853.333H1066.67V782.222Z" stroke="#F8E71C" stroke-width="0.8"/>
<path d="M1137.78 782.222H1066.67V853.333H1137.78V782.222Z" stroke="#F8E71C" stroke-width="0.8"/>
<path d="M1208.89 782.222H1137.78V853.333H1208.89V782.222Z" stroke="#F8E71C" stroke-width="0.8"/>
<path d="M1280 782.222H1208.89V853.333H1280V782.222Z" stroke="#F8E71C" stroke-width="0.8"/>
<path d="M1351.11 782.222H1280V853.333H1351.11V782.222Z" stroke="#F8E71C" stroke-width="0.8"/>
<path d="M71.1111 853.333H0V924.444H71.1111V853.333Z" stroke="#F8E71C" stroke-width="0.8"/>
<path d="M142.222 853.333H71.1111V924.444H142.222V853.333Z" stroke="#F8E71C" stroke-width="0.8"/>
<path d="M213.333 853.333H142.222V924.444H213.333V853.333Z" stroke="#F8E71C" stroke-width="0.8"/>
<path d="M284.444 853.333H213.333V924.444H284.444V853.333Z" stroke="#F8E71C" stroke-width="0.8"/>
<path d="M355.555 853.333H284.444V924.444H355.555V853.333Z" stroke="#F8E71C" stroke-width="0.8"/>
<path d="M426.667 853.333H355.556V924.444H426.667V853.333Z" stroke="#F8E71C" stroke-width="0.8"/>
<path d="M497.778 853.333H426.667V924.444H497.778V853.333Z" stroke="#F8E71C" stroke-width="0.8"/>
<path d="M568.889 853.333H497.778V924.444H568.889V853.333Z" stroke="#F8E71C" stroke-width="0.8"/>
<path d="M640.001 853.333H568.889V924.444H640.001V853.333Z" stroke="#F8E71C" stroke-width="0.8"/>
<path d="M711.111 853.333H640V924.444H711.111V853.333Z" stroke="#F8E71C" stroke-width="0.8"/>
<path d="M782.222 853.333H711.111V924.444H782.222V853.333Z" stroke="#F8E71C" stroke-width="0.8"/>
<path d="M853.333 853.333H782.222V924.444H853.333V853.333Z" stroke="#F8E71C" stroke-width="0.8"/>
<path d="M924.445 853.333H853.333V924.444H924.445V853.333Z" stroke="#F8E71C" stroke-width="0.8"/>
<path d="M995.555 853.333H924.444V924.444H995.555V853.333Z" stroke="#F8E71C" stroke-width="0.8"/>
<path d="M1066.67 853.333H995.556V924.444H1066.67V853.333Z" stroke="#F8E71C" stroke-width="0.8"/>
<path d="M1137.78 853.333H1066.67V924.444H1137.78V853.333Z" stroke="#F8E71C" stroke-width="0.8"/>
<path d="M1208.89 853.333H1137.78V924.444H1208.89V853.333Z" stroke="#F8E71C" stroke-width="0.8"/>
<path d="M1280 853.333H1208.89V924.444H1280V853.333Z" stroke="#F8E71C" stroke-width="0.8"/>
<path d="M1351.11 853.333H1280V924.444H1351.11V853.333Z" stroke="#F8E71C" stroke-width="0.8"/>
<path d="M71.1111 924.444H0V995.555H71.1111V924.444Z" stroke="#F8E71C" stroke-width="0.8"/>
<path d="M142.222 924.444H71.1111V995.555H142.222V924.444Z" stroke="#F8E71C" stroke-width="0.8"/>
<path d="M213.333 924.444H142.222V995.555H213.333V924.444Z" stroke="#F8E71C" stroke-width="0.8"/>
<path d="M284.444 924.444H213.333V995.555H284.444V924.444Z" stroke="#F8E71C" stroke-width="0.8"/>
<path d="M355.555 924.444H284.444V995.555H355.555V924.444Z" stroke="#F8E71C" stroke-width="0.8"/>
<path d="M426.667 924.444H355.556V995.555H426.667V924.444Z" stroke="#F8E71C" stroke-width="0.8"/>
<path d="M497.778 924.444H426.667V995.555H497.778V924.444Z" stroke="#F8E71C" stroke-width="0.8"/>
<path d="M568.889 924.444H497.778V995.555H568.889V924.444Z" stroke="#F8E71C" stroke-width="0.8"/>
<path d="M640.001 924.444H568.889V995.555H640.001V924.444Z" stroke="#F8E71C" stroke-width="0.8"/>
<path d="M711.111 924.444H640V995.555H711.111V924.444Z" stroke="#F8E71C" stroke-width="0.8"/>
<path d="M782.222 924.444H711.111V995.555H782.222V924.444Z" stroke="#F8E71C" stroke-width="0.8"/>
<path d="M853.333 924.444H782.222V995.555H853.333V924.444Z" stroke="#F8E71C" stroke-width="0.8"/>
<path d="M924.445 924.444H853.333V995.555H924.445V924.444Z" stroke="#F8E71C" stroke-width="0.8"/>
<path d="M995.555 924.444H924.444V995.555H995.555V924.444Z" stroke="#F8E71C" stroke-width="0.8"/>
<path d="M1066.67 924.444H995.556V995.555H1066.67V924.444Z" stroke="#F8E71C" stroke-width="0.8"/>
<path d="M1137.78 924.444H1066.67V995.555H1137.78V924.444Z" stroke="#F8E71C" stroke-width="0.8"/>
<path d="M1208.89 924.444H1137.78V995.555H1208.89V924.444Z" stroke="#F8E71C" stroke-width="0.8"/>
<path d="M1280 924.444H1208.89V995.555H1280V924.444Z" stroke="#F8E71C" stroke-width="0.8"/>
<path d="M1351.11 924.444H1280V995.555H1351.11V924.444Z" stroke="#F8E71C" stroke-width="0.8"/>
<path d="M71.1111 995.556H0V1066.67H71.1111V995.556Z" stroke="#F8E71C" stroke-width="0.8"/>
<path d="M142.222 995.556H71.1111V1066.67H142.222V995.556Z" stroke="#F8E71C" stroke-width="0.8"/>
<path d="M213.333 995.556H142.222V1066.67H213.333V995.556Z" stroke="#F8E71C" stroke-width="0.8"/>
<path d="M284.444 995.556H213.333V1066.67H284.444V995.556Z" stroke="#F8E71C" stroke-width="0.8"/>
<path d="M355.555 995.556H284.444V1066.67H355.555V995.556Z" stroke="#F8E71C" stroke-width="0.8"/>
<path d="M426.667 995.556H355.556V1066.67H426.667V995.556Z" stroke="#F8E71C" stroke-width="0.8"/>
<path d="M497.778 995.556H426.667V1066.67H497.778V995.556Z" stroke="#F8E71C" stroke-width="0.8"/>
<path d="M568.889 995.556H497.778V1066.67H568.889V995.556Z" stroke="#F8E71C" stroke-width="0.8"/>
<path d="M640.001 995.556H568.889V1066.67H640.001V995.556Z" stroke="#F8E71C" stroke-width="0.8"/>
<path d="M711.111 995.556H640V1066.67H711.111V995.556Z" stroke="#F8E71C" stroke-width="0.8"/>
<path d="M782.222 995.556H711.111V1066.67H782.222V995.556Z" stroke="#F8E71C" stroke-width="0.8"/>
<path d="M853.333 995.556H782.222V1066.67H853.333V995.556Z" stroke="#F8E71C" stroke-width="0.8"/>
<path d="M924.445 995.556H853.333V1066.67H924.445V995.556Z" stroke="#F8E71C" stroke-width="0.8"/>
<path d="M995.555 995.556H924.444V1066.67H995.555V995.556Z" stroke="#F8E71C" stroke-width="0.8"/>
<path d="M1066.67 995.556H995.556V1066.67H1066.67V995.556Z" stroke="#F8E71C" stroke-width="0.8"/>
<path d="M1137.78 995.556H1066.67V1066.67H1137.78V995.556Z" stroke="#F8E71C" stroke-width="0.8"/>
<path d="M1208.89 995.556H1137.78V1066.67H1208.89V995.556Z" stroke="#F8E71C" stroke-width="0.8"/>
<path d="M1280 995.556H1208.89V1066.67H1280V995.556Z" stroke="#F8E71C" stroke-width="0.8"/>
<path d="M1351.11 995.556H1280V1066.67H1351.11V995.556Z" stroke="#F8E71C" stroke-width="0.8"/>
<path d="M71.1111 1066.67H0V1137.78H71.1111V1066.67Z" stroke="#F8E71C" stroke-width="0.8"/>
<path d="M142.222 1066.67H71.1111V1137.78H142.222V1066.67Z" stroke="#F8E71C" stroke-width="0.8"/>
<path d="M213.333 1066.67H142.222V1137.78H213.333V1066.67Z" stroke="#F8E71C" stroke-width="0.8"/>
<path d="M284.444 1066.67H213.333V1137.78H284.444V1066.67Z" stroke="#F8E71C" stroke-width="0.8"/>
<path d="M355.555 1066.67H284.444V1137.78H355.555V1066.67Z" stroke="#F8E71C" stroke-width="0.8"/>
<path d="M426.667 1066.67H355.556V1137.78H426.667V1066.67Z" stroke="#F8E71C" stroke-width="0.8"/>
<path d="M497.778 1066.67H426.667V1137.78H497.778V1066.67Z" stroke="#F8E71C" stroke-width="0.8"/>
<path d="M568.889 1066.67H497.778V1137.78H568.889V1066.67Z" stroke="#F8E71C" stroke-width="0.8"/>
<path d="M640.001 1066.67H568.889V1137.78H640.001V1066.67Z" stroke="#F8E71C" stroke-width="0.8"/>
<path d="M711.111 1066.67H640V1137.78H711.111V1066.67Z" stroke="#F8E71C" stroke-width="0.8"/>
<path d="M782.222 1066.67H711.111V1137.78H782.222V1066.67Z" stroke="#F8E71C" stroke-width="0.8"/>
<path d="M853.333 1066.67H782.222V1137.78H853.333V1066.67Z" stroke="#F8E71C" stroke-width="0.8"/>
<path d="M924.445 1066.67H853.333V1137.78H924.445V1066.67Z" stroke="#F8E71C" stroke-width="0.8"/>
<path d="M995.555 1066.67H924.444V1137.78H995.555V1066.67Z" stroke="#F8E71C" stroke-width="0.8"/>
<path d="M1066.67 1066.67H995.556V1137.78H1066.67V1066.67Z" stroke="#F8E71C" stroke-width="0.8"/>
<path d="M1137.78 1066.67H1066.67V1137.78H1137.78V1066.67Z" stroke="#F8E71C" stroke-width="0.8"/>
<path d="M1208.89 1066.67H1137.78V1137.78H1208.89V1066.67Z" stroke="#F8E71C" stroke-width="0.8"/>
<path d="M1280 1066.67H1208.89V1137.78H1280V1066.67Z" stroke="#F8E71C" stroke-width="0.8"/>
<path d="M1351.11 1066.67H1280V1137.78H1351.11V1066.67Z" stroke="#F8E71C" stroke-width="0.8"/>
<path d="M71.1111 1137.78H0V1208.89H71.1111V1137.78Z" stroke="#F8E71C" stroke-width="0.8"/>
<path d="M142.222 1137.78H71.1111V1208.89H142.222V1137.78Z" stroke="#F8E71C" stroke-width="0.8"/>
<path d="M213.333 1137.78H142.222V1208.89H213.333V1137.78Z" stroke="#F8E71C" stroke-width="0.8"/>
<path d="M284.444 1137.78H213.333V1208.89H284.444V1137.78Z" stroke="#F8E71C" stroke-width="0.8"/>
<path d="M355.555 1137.78H284.444V1208.89H355.555V1137.78Z" stroke="#F8E71C" stroke-width="0.8"/>
<path d="M426.667 1137.78H355.556V1208.89H426.667V1137.78Z" stroke="#F8E71C" stroke-width="0.8"/>
<path d="M497.778 1137.78H426.667V1208.89H497.778V1137.78Z" stroke="#F8E71C" stroke-width="0.8"/>
<path d="M568.889 1137.78H497.778V1208.89H568.889V1137.78Z" stroke="#F8E71C" stroke-width="0.8"/>
<path d="M640.001 1137.78H568.889V1208.89H640.001V1137.78Z" stroke="#F8E71C" stroke-width="0.8"/>
<path d="M711.111 1137.78H640V1208.89H711.111V1137.78Z" stroke="#F8E71C" stroke-width="0.8"/>
<path d="M782.222 1137.78H711.111V1208.89H782.222V1137.78Z" stroke="#F8E71C" stroke-width="0.8"/>
<path d="M853.333 1137.78H782.222V1208.89H853.333V1137.78Z" stroke="#F8E71C" stroke-width="0.8"/>
<path d="M924.445 1137.78H853.333V1208.89H924.445V1137.78Z" stroke="#F8E71C" stroke-width="0.8"/>
<path d="M995.555 1137.78H924.444V1208.89H995.555V1137.78Z" stroke="#F8E71C" stroke-width="0.8"/>
<path d="M1066.67 1137.78H995.556V1208.89H1066.67V1137.78Z" stroke="#F8E71C" stroke-width="0.8"/>
<path d="M1137.78 1137.78H1066.67V1208.89H1137.78V1137.78Z" stroke="#F8E71C" stroke-width="0.8"/>
<path d="M1208.89 1137.78H1137.78V1208.89H1208.89V1137.78Z" stroke="#F8E71C" stroke-width="0.8"/>
<path d="M1280 1137.78H1208.89V1208.89H1280V1137.78Z" stroke="#F8E71C" stroke-width="0.8"/>
<path d="M1351.11 1137.78H1280V1208.89H1351.11V1137.78Z" stroke="#F8E71C" stroke-width="0.8"/>
<path d="M71.1111 1208.89H0V1280H71.1111V1208.89Z" stroke="#F8E71C" stroke-width="0.8"/>
<path d="M142.222 1208.89H71.1111V1280H142.222V1208.89Z" stroke="#F8E71C" stroke-width="0.8"/>
<path d="M213.333 1208.89H142.222V1280H213.333V1208.89Z" stroke="#F8E71C" stroke-width="0.8"/>
<path d="M284.444 1208.89H213.333V1280H284.444V1208.89Z" stroke="#F8E71C" stroke-width="0.8"/>
<path d="M355.555 1208.89H284.444V1280H355.555V1208.89Z" stroke="#F8E71C" stroke-width="0.8"/>
<path d="M426.667 1208.89H355.556V1280H426.667V1208.89Z" stroke="#F8E71C" stroke-width="0.8"/>
<path d="M497.778 1208.89H426.667V1280H497.778V1208.89Z" stroke="#F8E71C" stroke-width="0.8"/>
<path d="M568.889 1208.89H497.778V1280H568.889V1208.89Z" stroke="#F8E71C" stroke-width="0.8"/>
<path d="M640.001 1208.89H568.889V1280H640.001V1208.89Z" stroke="#F8E71C" stroke-width="0.8"/>
<path d="M711.111 1208.89H640V1280H711.111V1208.89Z" stroke="#F8E71C" stroke-width="0.8"/>
<path d="M782.222 1208.89H711.111V1280H782.222V1208.89Z" stroke="#F8E71C" stroke-width="0.8"/>
<path d="M853.333 1208.89H782.222V1280H853.333V1208.89Z" stroke="#F8E71C" stroke-width="0.8"/>
<path d="M924.445 1208.89H853.333V1280H924.445V1208.89Z" stroke="#F8E71C" stroke-width="0.8"/>
<path d="M995.555 1208.89H924.444V1280H995.555V1208.89Z" stroke="#F8E71C" stroke-width="0.8"/>
<path d="M1066.67 1208.89H995.556V1280H1066.67V1208.89Z" stroke="#F8E71C" stroke-width="0.8"/>
<path d="M1137.78 1208.89H1066.67V1280H1137.78V1208.89Z" stroke="#F8E71C" stroke-width="0.8"/>
<path d="M1208.89 1208.89H1137.78V1280H1208.89V1208.89Z" stroke="#F8E71C" stroke-width="0.8"/>
<path d="M1280 1208.89H1208.89V1280H1280V1208.89Z" stroke="#F8E71C" stroke-width="0.8"/>
<path d="M1351.11 1208.89H1280V1280H1351.11V1208.89Z" stroke="#F8E71C" stroke-width="0.8"/>
<path d="M71.1111 1280H0V1351.11H71.1111V1280Z" stroke="#F8E71C" stroke-width="0.8"/>
<path d="M142.222 1280H71.1111V1351.11H142.222V1280Z" stroke="#F8E71C" stroke-width="0.8"/>
<path d="M213.333 1280H142.222V1351.11H213.333V1280Z" stroke="#F8E71C" stroke-width="0.8"/>
<path d="M284.444 1280H213.333V1351.11H284.444V1280Z" stroke="#F8E71C" stroke-width="0.8"/>
<path d="M355.555 1280H284.444V1351.11H355.555V1280Z" stroke="#F8E71C" stroke-width="0.8"/>
<path d="M426.667 1280H355.556V1351.11H426.667V1280Z" stroke="#F8E71C" stroke-width="0.8"/>
<path d="M497.778 1280H426.667V1351.11H497.778V1280Z" stroke="#F8E71C" stroke-width="0.8"/>
<path d="M568.889 1280H497.778V1351.11H568.889V1280Z" stroke="#F8E71C" stroke-width="0.8"/>
<path d="M640.001 1280H568.889V1351.11H640.001V1280Z" stroke="#F8E71C" stroke-width="0.8"/>
<path d="M711.111 1280H640V1351.11H711.111V1280Z" stroke="#F8E71C" stroke-width="0.8"/>
<path d="M782.222 1280H711.111V1351.11H782.222V1280Z" stroke="#F8E71C" stroke-width="0.8"/>
<path d="M853.333 1280H782.222V1351.11H853.333V1280Z" stroke="#F8E71C" stroke-width="0.8"/>
<path d="M924.445 1280H853.333V1351.11H924.445V1280Z" stroke="#F8E71C" stroke-width="0.8"/>
<path d="M995.555 1280H924.444V1351.11H995.555V1280Z" stroke="#F8E71C" stroke-width="0.8"/>
<path d="M1066.67 1280H995.556V1351.11H1066.67V1280Z" stroke="#F8E71C" stroke-width="0.8"/>
<path d="M1137.78 1280H1066.67V1351.11H1137.78V1280Z" stroke="#F8E71C" stroke-width="0.8"/>
<path d="M1208.89 1280H1137.78V1351.11H1208.89V1280Z" stroke="#F8E71C" stroke-width="0.8"/>
<path d="M1280 1280H1208.89V1351.11H1280V1280Z" stroke="#F8E71C" stroke-width="0.8"/>
<path d="M1351.11 1280H1280V1351.11H1351.11V1280Z" stroke="#F8E71C" stroke-width="0.8"/>
</g>
<g clip-path="url(#clip1_412_1579)">
<path d="M71.1111 1280H0V1351.11H71.1111V1280Z" stroke="#F8E71C" stroke-width="0.8"/>
<path d="M142.222 1280H71.1111V1351.11H142.222V1280Z" stroke="#F8E71C" stroke-width="0.8"/>
<path d="M213.333 1280H142.222V1351.11H213.333V1280Z" stroke="#F8E71C" stroke-width="0.8"/>
<path d="M284.444 1280H213.333V1351.11H284.444V1280Z" stroke="#F8E71C" stroke-width="0.8"/>
<path d="M355.555 1280H284.444V1351.11H355.555V1280Z" stroke="#F8E71C" stroke-width="0.8"/>
<path d="M426.667 1280H355.556V1351.11H426.667V1280Z" stroke="#F8E71C" stroke-width="0.8"/>
<path d="M497.778 1280H426.667V1351.11H497.778V1280Z" stroke="#F8E71C" stroke-width="0.8"/>
<path d="M568.889 1280H497.778V1351.11H568.889V1280Z" stroke="#F8E71C" stroke-width="0.8"/>
<path d="M640.001 1280H568.889V1351.11H640.001V1280Z" stroke="#F8E71C" stroke-width="0.8"/>
<path d="M711.111 1280H640V1351.11H711.111V1280Z" stroke="#F8E71C" stroke-width="0.8"/>
<path d="M782.222 1280H711.111V1351.11H782.222V1280Z" stroke="#F8E71C" stroke-width="0.8"/>
<path d="M853.333 1280H782.222V1351.11H853.333V1280Z" stroke="#F8E71C" stroke-width="0.8"/>
<path d="M924.445 1280H853.333V1351.11H924.445V1280Z" stroke="#F8E71C" stroke-width="0.8"/>
<path d="M995.555 1280H924.444V1351.11H995.555V1280Z" stroke="#F8E71C" stroke-width="0.8"/>
<path d="M1066.67 1280H995.556V1351.11H1066.67V1280Z" stroke="#F8E71C" stroke-width="0.8"/>
<path d="M1137.78 1280H1066.67V1351.11H1137.78V1280Z" stroke="#F8E71C" stroke-width="0.8"/>
<path d="M1208.89 1280H1137.78V1351.11H1208.89V1280Z" stroke="#F8E71C" stroke-width="0.8"/>
<path d="M1280 1280H1208.89V1351.11H1280V1280Z" stroke="#F8E71C" stroke-width="0.8"/>
<path d="M1351.11 1280H1280V1351.11H1351.11V1280Z" stroke="#F8E71C" stroke-width="0.8"/>
<path d="M71.1111 1351.11H0V1422.22H71.1111V1351.11Z" stroke="#F8E71C" stroke-width="0.8"/>
<path d="M142.222 1351.11H71.1111V1422.22H142.222V1351.11Z" stroke="#F8E71C" stroke-width="0.8"/>
<path d="M213.333 1351.11H142.222V1422.22H213.333V1351.11Z" stroke="#F8E71C" stroke-width="0.8"/>
<path d="M284.444 1351.11H213.333V1422.22H284.444V1351.11Z" stroke="#F8E71C" stroke-width="0.8"/>
<path d="M355.555 1351.11H284.444V1422.22H355.555V1351.11Z" stroke="#F8E71C" stroke-width="0.8"/>
<path d="M426.667 1351.11H355.556V1422.22H426.667V1351.11Z" stroke="#F8E71C" stroke-width="0.8"/>
<path d="M497.778 1351.11H426.667V1422.22H497.778V1351.11Z" stroke="#F8E71C" stroke-width="0.8"/>
<path d="M568.889 1351.11H497.778V1422.22H568.889V1351.11Z" stroke="#F8E71C" stroke-width="0.8"/>
<path d="M640.001 1351.11H568.889V1422.22H640.001V1351.11Z" stroke="#F8E71C" stroke-width="0.8"/>
<path d="M711.111 1351.11H640V1422.22H711.111V1351.11Z" stroke="#F8E71C" stroke-width="0.8"/>
<path d="M782.222 1351.11H711.111V1422.22H782.222V1351.11Z" stroke="#F8E71C" stroke-width="0.8"/>
<path d="M853.333 1351.11H782.222V1422.22H853.333V1351.11Z" stroke="#F8E71C" stroke-width="0.8"/>
<path d="M924.445 1351.11H853.333V1422.22H924.445V1351.11Z" stroke="#F8E71C" stroke-width="0.8"/>
<path d="M995.555 1351.11H924.444V1422.22H995.555V1351.11Z" stroke="#F8E71C" stroke-width="0.8"/>
<path d="M1066.67 1351.11H995.556V1422.22H1066.67V1351.11Z" stroke="#F8E71C" stroke-width="0.8"/>
<path d="M1137.78 1351.11H1066.67V1422.22H1137.78V1351.11Z" stroke="#F8E71C" stroke-width="0.8"/>
<path d="M1208.89 1351.11H1137.78V1422.22H1208.89V1351.11Z" stroke="#F8E71C" stroke-width="0.8"/>
<path d="M1280 1351.11H1208.89V1422.22H1280V1351.11Z" stroke="#F8E71C" stroke-width="0.8"/>
<path d="M1351.11 1351.11H1280V1422.22H1351.11V1351.11Z" stroke="#F8E71C" stroke-width="0.8"/>
<path d="M71.1111 1422.22H0V1493.33H71.1111V1422.22Z" stroke="#F8E71C" stroke-width="0.8"/>
<path d="M142.222 1422.22H71.1111V1493.33H142.222V1422.22Z" stroke="#F8E71C" stroke-width="0.8"/>
<path d="M213.333 1422.22H142.222V1493.33H213.333V1422.22Z" stroke="#F8E71C" stroke-width="0.8"/>
<path d="M284.444 1422.22H213.333V1493.33H284.444V1422.22Z" stroke="#F8E71C" stroke-width="0.8"/>
<path d="M355.555 1422.22H284.444V1493.33H355.555V1422.22Z" stroke="#F8E71C" stroke-width="0.8"/>
<path d="M426.667 1422.22H355.556V1493.33H426.667V1422.22Z" stroke="#F8E71C" stroke-width="0.8"/>
<path d="M497.778 1422.22H426.667V1493.33H497.778V1422.22Z" stroke="#F8E71C" stroke-width="0.8"/>
<path d="M568.889 1422.22H497.778V1493.33H568.889V1422.22Z" stroke="#F8E71C" stroke-width="0.8"/>
<path d="M640.001 1422.22H568.889V1493.33H640.001V1422.22Z" stroke="#F8E71C" stroke-width="0.8"/>
<path d="M711.111 1422.22H640V1493.33H711.111V1422.22Z" stroke="#F8E71C" stroke-width="0.8"/>
<path d="M782.222 1422.22H711.111V1493.33H782.222V1422.22Z" stroke="#F8E71C" stroke-width="0.8"/>
<path d="M853.333 1422.22H782.222V1493.33H853.333V1422.22Z" stroke="#F8E71C" stroke-width="0.8"/>
<path d="M924.445 1422.22H853.333V1493.33H924.445V1422.22Z" stroke="#F8E71C" stroke-width="0.8"/>
<path d="M995.555 1422.22H924.444V1493.33H995.555V1422.22Z" stroke="#F8E71C" stroke-width="0.8"/>
<path d="M1066.67 1422.22H995.556V1493.33H1066.67V1422.22Z" stroke="#F8E71C" stroke-width="0.8"/>
<path d="M1137.78 1422.22H1066.67V1493.33H1137.78V1422.22Z" stroke="#F8E71C" stroke-width="0.8"/>
<path d="M1208.89 1422.22H1137.78V1493.33H1208.89V1422.22Z" stroke="#F8E71C" stroke-width="0.8"/>
<path d="M1280 1422.22H1208.89V1493.33H1280V1422.22Z" stroke="#F8E71C" stroke-width="0.8"/>
<path d="M1351.11 1422.22H1280V1493.33H1351.11V1422.22Z" stroke="#F8E71C" stroke-width="0.8"/>
<path d="M71.1111 1493.33H0V1564.44H71.1111V1493.33Z" stroke="#F8E71C" stroke-width="0.8"/>
<path d="M142.222 1493.33H71.1111V1564.44H142.222V1493.33Z" stroke="#F8E71C" stroke-width="0.8"/>
<path d="M213.333 1493.33H142.222V1564.44H213.333V1493.33Z" stroke="#F8E71C" stroke-width="0.8"/>
<path d="M284.444 1493.33H213.333V1564.44H284.444V1493.33Z" stroke="#F8E71C" stroke-width="0.8"/>
<path d="M355.555 1493.33H284.444V1564.44H355.555V1493.33Z" stroke="#F8E71C" stroke-width="0.8"/>
<path d="M426.667 1493.33H355.556V1564.44H426.667V1493.33Z" stroke="#F8E71C" stroke-width="0.8"/>
<path d="M497.778 1493.33H426.667V1564.44H497.778V1493.33Z" stroke="#F8E71C" stroke-width="0.8"/>
<path d="M568.889 1493.33H497.778V1564.44H568.889V1493.33Z" stroke="#F8E71C" stroke-width="0.8"/>
<path d="M640.001 1493.33H568.889V1564.44H640.001V1493.33Z" stroke="#F8E71C" stroke-width="0.8"/>
<path d="M711.111 1493.33H640V1564.44H711.111V1493.33Z" stroke="#F8E71C" stroke-width="0.8"/>
<path d="M782.222 1493.33H711.111V1564.44H782.222V1493.33Z" stroke="#F8E71C" stroke-width="0.8"/>
<path d="M853.333 1493.33H782.222V1564.44H853.333V1493.33Z" stroke="#F8E71C" stroke-width="0.8"/>
<path d="M924.445 1493.33H853.333V1564.44H924.445V1493.33Z" stroke="#F8E71C" stroke-width="0.8"/>
<path d="M995.555 1493.33H924.444V1564.44H995.555V1493.33Z" stroke="#F8E71C" stroke-width="0.8"/>
<path d="M1066.67 1493.33H995.556V1564.44H1066.67V1493.33Z" stroke="#F8E71C" stroke-width="0.8"/>
<path d="M1137.78 1493.33H1066.67V1564.44H1137.78V1493.33Z" stroke="#F8E71C" stroke-width="0.8"/>
<path d="M1208.89 1493.33H1137.78V1564.44H1208.89V1493.33Z" stroke="#F8E71C" stroke-width="0.8"/>
<path d="M1280 1493.33H1208.89V1564.44H1280V1493.33Z" stroke="#F8E71C" stroke-width="0.8"/>
<path d="M1351.11 1493.33H1280V1564.44H1351.11V1493.33Z" stroke="#F8E71C" stroke-width="0.8"/>
<path d="M71.1111 1564.44H0V1635.56H71.1111V1564.44Z" stroke="#F8E71C" stroke-width="0.8"/>
<path d="M142.222 1564.44H71.1111V1635.56H142.222V1564.44Z" stroke="#F8E71C" stroke-width="0.8"/>
<path d="M213.333 1564.44H142.222V1635.56H213.333V1564.44Z" stroke="#F8E71C" stroke-width="0.8"/>
<path d="M284.444 1564.44H213.333V1635.56H284.444V1564.44Z" stroke="#F8E71C" stroke-width="0.8"/>
<path d="M355.555 1564.44H284.444V1635.56H355.555V1564.44Z" stroke="#F8E71C" stroke-width="0.8"/>
<path d="M426.667 1564.44H355.556V1635.56H426.667V1564.44Z" stroke="#F8E71C" stroke-width="0.8"/>
<path d="M497.778 1564.44H426.667V1635.56H497.778V1564.44Z" stroke="#F8E71C" stroke-width="0.8"/>
<path d="M568.889 1564.44H497.778V1635.56H568.889V1564.44Z" stroke="#F8E71C" stroke-width="0.8"/>
<path d="M640.001 1564.44H568.889V1635.56H640.001V1564.44Z" stroke="#F8E71C" stroke-width="0.8"/>
<path d="M711.111 1564.44H640V1635.56H711.111V1564.44Z" stroke="#F8E71C" stroke-width="0.8"/>
<path d="M782.222 1564.44H711.111V1635.56H782.222V1564.44Z" stroke="#F8E71C" stroke-width="0.8"/>
<path d="M853.333 1564.44H782.222V1635.56H853.333V1564.44Z" stroke="#F8E71C" stroke-width="0.8"/>
<path d="M924.445 1564.44H853.333V1635.56H924.445V1564.44Z" stroke="#F8E71C" stroke-width="0.8"/>
<path d="M995.555 1564.44H924.444V1635.56H995.555V1564.44Z" stroke="#F8E71C" stroke-width="0.8"/>
<path d="M1066.67 1564.44H995.556V1635.56H1066.67V1564.44Z" stroke="#F8E71C" stroke-width="0.8"/>
<path d="M1137.78 1564.44H1066.67V1635.56H1137.78V1564.44Z" stroke="#F8E71C" stroke-width="0.8"/>
<path d="M1208.89 1564.44H1137.78V1635.56H1208.89V1564.44Z" stroke="#F8E71C" stroke-width="0.8"/>
<path d="M1280 1564.44H1208.89V1635.56H1280V1564.44Z" stroke="#F8E71C" stroke-width="0.8"/>
<path d="M1351.11 1564.44H1280V1635.56H1351.11V1564.44Z" stroke="#F8E71C" stroke-width="0.8"/>
<path d="M71.1111 1635.56H0V1706.67H71.1111V1635.56Z" stroke="#F8E71C" stroke-width="0.8"/>
<path d="M142.222 1635.56H71.1111V1706.67H142.222V1635.56Z" stroke="#F8E71C" stroke-width="0.8"/>
<path d="M213.333 1635.56H142.222V1706.67H213.333V1635.56Z" stroke="#F8E71C" stroke-width="0.8"/>
<path d="M284.444 1635.56H213.333V1706.67H284.444V1635.56Z" stroke="#F8E71C" stroke-width="0.8"/>
<path d="M355.555 1635.56H284.444V1706.67H355.555V1635.56Z" stroke="#F8E71C" stroke-width="0.8"/>
<path d="M426.667 1635.56H355.556V1706.67H426.667V1635.56Z" stroke="#F8E71C" stroke-width="0.8"/>
<path d="M497.778 1635.56H426.667V1706.67H497.778V1635.56Z" stroke="#F8E71C" stroke-width="0.8"/>
<path d="M568.889 1635.56H497.778V1706.67H568.889V1635.56Z" stroke="#F8E71C" stroke-width="0.8"/>
<path d="M640.001 1635.56H568.889V1706.67H640.001V1635.56Z" stroke="#F8E71C" stroke-width="0.8"/>
<path d="M711.111 1635.56H640V1706.67H711.111V1635.56Z" stroke="#F8E71C" stroke-width="0.8"/>
<path d="M782.222 1635.56H711.111V1706.67H782.222V1635.56Z" stroke="#F8E71C" stroke-width="0.8"/>
<path d="M853.333 1635.56H782.222V1706.67H853.333V1635.56Z" stroke="#F8E71C" stroke-width="0.8"/>
<path d="M924.445 1635.56H853.333V1706.67H924.445V1635.56Z" stroke="#F8E71C" stroke-width="0.8"/>
<path d="M995.555 1635.56H924.444V1706.67H995.555V1635.56Z" stroke="#F8E71C" stroke-width="0.8"/>
<path d="M1066.67 1635.56H995.556V1706.67H1066.67V1635.56Z" stroke="#F8E71C" stroke-width="0.8"/>
<path d="M1137.78 1635.56H1066.67V1706.67H1137.78V1635.56Z" stroke="#F8E71C" stroke-width="0.8"/>
<path d="M1208.89 1635.56H1137.78V1706.67H1208.89V1635.56Z" stroke="#F8E71C" stroke-width="0.8"/>
<path d="M1280 1635.56H1208.89V1706.67H1280V1635.56Z" stroke="#F8E71C" stroke-width="0.8"/>
<path d="M1351.11 1635.56H1280V1706.67H1351.11V1635.56Z" stroke="#F8E71C" stroke-width="0.8"/>
<path d="M71.1111 1706.67H0V1777.78H71.1111V1706.67Z" stroke="#F8E71C" stroke-width="0.8"/>
<path d="M142.222 1706.67H71.1111V1777.78H142.222V1706.67Z" stroke="#F8E71C" stroke-width="0.8"/>
<path d="M213.333 1706.67H142.222V1777.78H213.333V1706.67Z" stroke="#F8E71C" stroke-width="0.8"/>
<path d="M284.444 1706.67H213.333V1777.78H284.444V1706.67Z" stroke="#F8E71C" stroke-width="0.8"/>
<path d="M355.555 1706.67H284.444V1777.78H355.555V1706.67Z" stroke="#F8E71C" stroke-width="0.8"/>
<path d="M426.667 1706.67H355.556V1777.78H426.667V1706.67Z" stroke="#F8E71C" stroke-width="0.8"/>
<path d="M497.778 1706.67H426.667V1777.78H497.778V1706.67Z" stroke="#F8E71C" stroke-width="0.8"/>
<path d="M568.889 1706.67H497.778V1777.78H568.889V1706.67Z" stroke="#F8E71C" stroke-width="0.8"/>
<path d="M640.001 1706.67H568.889V1777.78H640.001V1706.67Z" stroke="#F8E71C" stroke-width="0.8"/>
<path d="M711.111 1706.67H640V1777.78H711.111V1706.67Z" stroke="#F8E71C" stroke-width="0.8"/>
<path d="M782.222 1706.67H711.111V1777.78H782.222V1706.67Z" stroke="#F8E71C" stroke-width="0.8"/>
<path d="M853.333 1706.67H782.222V1777.78H853.333V1706.67Z" stroke="#F8E71C" stroke-width="0.8"/>
<path d="M924.445 1706.67H853.333V1777.78H924.445V1706.67Z" stroke="#F8E71C" stroke-width="0.8"/>
<path d="M995.555 1706.67H924.444V1777.78H995.555V1706.67Z" stroke="#F8E71C" stroke-width="0.8"/>
<path d="M1066.67 1706.67H995.556V1777.78H1066.67V1706.67Z" stroke="#F8E71C" stroke-width="0.8"/>
<path d="M1137.78 1706.67H1066.67V1777.78H1137.78V1706.67Z" stroke="#F8E71C" stroke-width="0.8"/>
<path d="M1208.89 1706.67H1137.78V1777.78H1208.89V1706.67Z" stroke="#F8E71C" stroke-width="0.8"/>
<path d="M1280 1706.67H1208.89V1777.78H1280V1706.67Z" stroke="#F8E71C" stroke-width="0.8"/>
<path d="M1351.11 1706.67H1280V1777.78H1351.11V1706.67Z" stroke="#F8E71C" stroke-width="0.8"/>
<path d="M71.1111 1777.78H0V1848.89H71.1111V1777.78Z" stroke="#F8E71C" stroke-width="0.8"/>
<path d="M142.222 1777.78H71.1111V1848.89H142.222V1777.78Z" stroke="#F8E71C" stroke-width="0.8"/>
<path d="M213.333 1777.78H142.222V1848.89H213.333V1777.78Z" stroke="#F8E71C" stroke-width="0.8"/>
<path d="M284.444 1777.78H213.333V1848.89H284.444V1777.78Z" stroke="#F8E71C" stroke-width="0.8"/>
<path d="M355.555 1777.78H284.444V1848.89H355.555V1777.78Z" stroke="#F8E71C" stroke-width="0.8"/>
<path d="M426.667 1777.78H355.556V1848.89H426.667V1777.78Z" stroke="#F8E71C" stroke-width="0.8"/>
<path d="M497.778 1777.78H426.667V1848.89H497.778V1777.78Z" stroke="#F8E71C" stroke-width="0.8"/>
<path d="M568.889 1777.78H497.778V1848.89H568.889V1777.78Z" stroke="#F8E71C" stroke-width="0.8"/>
<path d="M640.001 1777.78H568.889V1848.89H640.001V1777.78Z" stroke="#F8E71C" stroke-width="0.8"/>
<path d="M711.111 1777.78H640V1848.89H711.111V1777.78Z" stroke="#F8E71C" stroke-width="0.8"/>
<path d="M782.222 1777.78H711.111V1848.89H782.222V1777.78Z" stroke="#F8E71C" stroke-width="0.8"/>
<path d="M853.333 1777.78H782.222V1848.89H853.333V1777.78Z" stroke="#F8E71C" stroke-width="0.8"/>
<path d="M924.445 1777.78H853.333V1848.89H924.445V1777.78Z" stroke="#F8E71C" stroke-width="0.8"/>
<path d="M995.555 1777.78H924.444V1848.89H995.555V1777.78Z" stroke="#F8E71C" stroke-width="0.8"/>
<path d="M1066.67 1777.78H995.556V1848.89H1066.67V1777.78Z" stroke="#F8E71C" stroke-width="0.8"/>
<path d="M1137.78 1777.78H1066.67V1848.89H1137.78V1777.78Z" stroke="#F8E71C" stroke-width="0.8"/>
<path d="M1208.89 1777.78H1137.78V1848.89H1208.89V1777.78Z" stroke="#F8E71C" stroke-width="0.8"/>
<path d="M1280 1777.78H1208.89V1848.89H1280V1777.78Z" stroke="#F8E71C" stroke-width="0.8"/>
<path d="M1351.11 1777.78H1280V1848.89H1351.11V1777.78Z" stroke="#F8E71C" stroke-width="0.8"/>
<path d="M71.1111 1848.89H0V1920H71.1111V1848.89Z" stroke="#F8E71C" stroke-width="0.8"/>
<path d="M142.222 1848.89H71.1111V1920H142.222V1848.89Z" stroke="#F8E71C" stroke-width="0.8"/>
<path d="M213.333 1848.89H142.222V1920H213.333V1848.89Z" stroke="#F8E71C" stroke-width="0.8"/>
<path d="M284.444 1848.89H213.333V1920H284.444V1848.89Z" stroke="#F8E71C" stroke-width="0.8"/>
<path d="M355.555 1848.89H284.444V1920H355.555V1848.89Z" stroke="#F8E71C" stroke-width="0.8"/>
<path d="M426.667 1848.89H355.556V1920H426.667V1848.89Z" stroke="#F8E71C" stroke-width="0.8"/>
<path d="M497.778 1848.89H426.667V1920H497.778V1848.89Z" stroke="#F8E71C" stroke-width="0.8"/>
<path d="M568.889 1848.89H497.778V1920H568.889V1848.89Z" stroke="#F8E71C" stroke-width="0.8"/>
<path d="M640.001 1848.89H568.889V1920H640.001V1848.89Z" stroke="#F8E71C" stroke-width="0.8"/>
<path d="M711.111 1848.89H640V1920H711.111V1848.89Z" stroke="#F8E71C" stroke-width="0.8"/>
<path d="M782.222 1848.89H711.111V1920H782.222V1848.89Z" stroke="#F8E71C" stroke-width="0.8"/>
<path d="M853.333 1848.89H782.222V1920H853.333V1848.89Z" stroke="#F8E71C" stroke-width="0.8"/>
<path d="M924.445 1848.89H853.333V1920H924.445V1848.89Z" stroke="#F8E71C" stroke-width="0.8"/>
<path d="M995.555 1848.89H924.444V1920H995.555V1848.89Z" stroke="#F8E71C" stroke-width="0.8"/>
<path d="M1066.67 1848.89H995.556V1920H1066.67V1848.89Z" stroke="#F8E71C" stroke-width="0.8"/>
<path d="M1137.78 1848.89H1066.67V1920H1137.78V1848.89Z" stroke="#F8E71C" stroke-width="0.8"/>
<path d="M1208.89 1848.89H1137.78V1920H1208.89V1848.89Z" stroke="#F8E71C" stroke-width="0.8"/>
<path d="M1280 1848.89H1208.89V1920H1280V1848.89Z" stroke="#F8E71C" stroke-width="0.8"/>
<path d="M1351.11 1848.89H1280V1920H1351.11V1848.89Z" stroke="#F8E71C" stroke-width="0.8"/>
<path d="M71.1111 1920H0V1991.11H71.1111V1920Z" stroke="#F8E71C" stroke-width="0.8"/>
<path d="M142.222 1920H71.1111V1991.11H142.222V1920Z" stroke="#F8E71C" stroke-width="0.8"/>
<path d="M213.333 1920H142.222V1991.11H213.333V1920Z" stroke="#F8E71C" stroke-width="0.8"/>
<path d="M284.444 1920H213.333V1991.11H284.444V1920Z" stroke="#F8E71C" stroke-width="0.8"/>
<path d="M355.555 1920H284.444V1991.11H355.555V1920Z" stroke="#F8E71C" stroke-width="0.8"/>
<path d="M426.667 1920H355.556V1991.11H426.667V1920Z" stroke="#F8E71C" stroke-width="0.8"/>
<path d="M497.778 1920H426.667V1991.11H497.778V1920Z" stroke="#F8E71C" stroke-width="0.8"/>
<path d="M568.889 1920H497.778V1991.11H568.889V1920Z" stroke="#F8E71C" stroke-width="0.8"/>
<path d="M640.001 1920H568.889V1991.11H640.001V1920Z" stroke="#F8E71C" stroke-width="0.8"/>
<path d="M711.111 1920H640V1991.11H711.111V1920Z" stroke="#F8E71C" stroke-width="0.8"/>
<path d="M782.222 1920H711.111V1991.11H782.222V1920Z" stroke="#F8E71C" stroke-width="0.8"/>
<path d="M853.333 1920H782.222V1991.11H853.333V1920Z" stroke="#F8E71C" stroke-width="0.8"/>
<path d="M924.445 1920H853.333V1991.11H924.445V1920Z" stroke="#F8E71C" stroke-width="0.8"/>
<path d="M995.555 1920H924.444V1991.11H995.555V1920Z" stroke="#F8E71C" stroke-width="0.8"/>
<path d="M1066.67 1920H995.556V1991.11H1066.67V1920Z" stroke="#F8E71C" stroke-width="0.8"/>
<path d="M1137.78 1920H1066.67V1991.11H1137.78V1920Z" stroke="#F8E71C" stroke-width="0.8"/>
<path d="M1208.89 1920H1137.78V1991.11H1208.89V1920Z" stroke="#F8E71C" stroke-width="0.8"/>
<path d="M1280 1920H1208.89V1991.11H1280V1920Z" stroke="#F8E71C" stroke-width="0.8"/>
<path d="M1351.11 1920H1280V1991.11H1351.11V1920Z" stroke="#F8E71C" stroke-width="0.8"/>
<path d="M71.1111 1991.11H0V2062.22H71.1111V1991.11Z" stroke="#F8E71C" stroke-width="0.8"/>
<path d="M142.222 1991.11H71.1111V2062.22H142.222V1991.11Z" stroke="#F8E71C" stroke-width="0.8"/>
<path d="M213.333 1991.11H142.222V2062.22H213.333V1991.11Z" stroke="#F8E71C" stroke-width="0.8"/>
<path d="M284.444 1991.11H213.333V2062.22H284.444V1991.11Z" stroke="#F8E71C" stroke-width="0.8"/>
<path d="M355.555 1991.11H284.444V2062.22H355.555V1991.11Z" stroke="#F8E71C" stroke-width="0.8"/>
<path d="M426.667 1991.11H355.556V2062.22H426.667V1991.11Z" stroke="#F8E71C" stroke-width="0.8"/>
<path d="M497.778 1991.11H426.667V2062.22H497.778V1991.11Z" stroke="#F8E71C" stroke-width="0.8"/>
<path d="M568.889 1991.11H497.778V2062.22H568.889V1991.11Z" stroke="#F8E71C" stroke-width="0.8"/>
<path d="M640.001 1991.11H568.889V2062.22H640.001V1991.11Z" stroke="#F8E71C" stroke-width="0.8"/>
<path d="M711.111 1991.11H640V2062.22H711.111V1991.11Z" stroke="#F8E71C" stroke-width="0.8"/>
<path d="M782.222 1991.11H711.111V2062.22H782.222V1991.11Z" stroke="#F8E71C" stroke-width="0.8"/>
<path d="M853.333 1991.11H782.222V2062.22H853.333V1991.11Z" stroke="#F8E71C" stroke-width="0.8"/>
<path d="M924.445 1991.11H853.333V2062.22H924.445V1991.11Z" stroke="#F8E71C" stroke-width="0.8"/>
<path d="M995.555 1991.11H924.444V2062.22H995.555V1991.11Z" stroke="#F8E71C" stroke-width="0.8"/>
<path d="M1066.67 1991.11H995.556V2062.22H1066.67V1991.11Z" stroke="#F8E71C" stroke-width="0.8"/>
<path d="M1137.78 1991.11H1066.67V2062.22H1137.78V1991.11Z" stroke="#F8E71C" stroke-width="0.8"/>
<path d="M1208.89 1991.11H1137.78V2062.22H1208.89V1991.11Z" stroke="#F8E71C" stroke-width="0.8"/>
<path d="M1280 1991.11H1208.89V2062.22H1280V1991.11Z" stroke="#F8E71C" stroke-width="0.8"/>
<path d="M1351.11 1991.11H1280V2062.22H1351.11V1991.11Z" stroke="#F8E71C" stroke-width="0.8"/>
<path d="M71.1111 2062.22H0V2133.33H71.1111V2062.22Z" stroke="#F8E71C" stroke-width="0.8"/>
<path d="M142.222 2062.22H71.1111V2133.33H142.222V2062.22Z" stroke="#F8E71C" stroke-width="0.8"/>
<path d="M213.333 2062.22H142.222V2133.33H213.333V2062.22Z" stroke="#F8E71C" stroke-width="0.8"/>
<path d="M284.444 2062.22H213.333V2133.33H284.444V2062.22Z" stroke="#F8E71C" stroke-width="0.8"/>
<path d="M355.555 2062.22H284.444V2133.33H355.555V2062.22Z" stroke="#F8E71C" stroke-width="0.8"/>
<path d="M426.667 2062.22H355.556V2133.33H426.667V2062.22Z" stroke="#F8E71C" stroke-width="0.8"/>
<path d="M497.778 2062.22H426.667V2133.33H497.778V2062.22Z" stroke="#F8E71C" stroke-width="0.8"/>
<path d="M568.889 2062.22H497.778V2133.33H568.889V2062.22Z" stroke="#F8E71C" stroke-width="0.8"/>
<path d="M640.001 2062.22H568.889V2133.33H640.001V2062.22Z" stroke="#F8E71C" stroke-width="0.8"/>
<path d="M711.111 2062.22H640V2133.33H711.111V2062.22Z" stroke="#F8E71C" stroke-width="0.8"/>
<path d="M782.222 2062.22H711.111V2133.33H782.222V2062.22Z" stroke="#F8E71C" stroke-width="0.8"/>
<path d="M853.333 2062.22H782.222V2133.33H853.333V2062.22Z" stroke="#F8E71C" stroke-width="0.8"/>
<path d="M924.445 2062.22H853.333V2133.33H924.445V2062.22Z" stroke="#F8E71C" stroke-width="0.8"/>
<path d="M995.555 2062.22H924.444V2133.33H995.555V2062.22Z" stroke="#F8E71C" stroke-width="0.8"/>
<path d="M1066.67 2062.22H995.556V2133.33H1066.67V2062.22Z" stroke="#F8E71C" stroke-width="0.8"/>
<path d="M1137.78 2062.22H1066.67V2133.33H1137.78V2062.22Z" stroke="#F8E71C" stroke-width="0.8"/>
<path d="M1208.89 2062.22H1137.78V2133.33H1208.89V2062.22Z" stroke="#F8E71C" stroke-width="0.8"/>
<path d="M1280 2062.22H1208.89V2133.33H1280V2062.22Z" stroke="#F8E71C" stroke-width="0.8"/>
<path d="M1351.11 2062.22H1280V2133.33H1351.11V2062.22Z" stroke="#F8E71C" stroke-width="0.8"/>
<path d="M71.1111 2133.33H0V2204.44H71.1111V2133.33Z" stroke="#F8E71C" stroke-width="0.8"/>
<path d="M142.222 2133.33H71.1111V2204.44H142.222V2133.33Z" stroke="#F8E71C" stroke-width="0.8"/>
<path d="M213.333 2133.33H142.222V2204.44H213.333V2133.33Z" stroke="#F8E71C" stroke-width="0.8"/>
<path d="M284.444 2133.33H213.333V2204.44H284.444V2133.33Z" stroke="#F8E71C" stroke-width="0.8"/>
<path d="M355.555 2133.33H284.444V2204.44H355.555V2133.33Z" stroke="#F8E71C" stroke-width="0.8"/>
<path d="M426.667 2133.33H355.556V2204.44H426.667V2133.33Z" stroke="#F8E71C" stroke-width="0.8"/>
<path d="M497.778 2133.33H426.667V2204.44H497.778V2133.33Z" stroke="#F8E71C" stroke-width="0.8"/>
<path d="M568.889 2133.33H497.778V2204.44H568.889V2133.33Z" stroke="#F8E71C" stroke-width="0.8"/>
<path d="M640.001 2133.33H568.889V2204.44H640.001V2133.33Z" stroke="#F8E71C" stroke-width="0.8"/>
<path d="M711.111 2133.33H640V2204.44H711.111V2133.33Z" stroke="#F8E71C" stroke-width="0.8"/>
<path d="M782.222 2133.33H711.111V2204.44H782.222V2133.33Z" stroke="#F8E71C" stroke-width="0.8"/>
<path d="M853.333 2133.33H782.222V2204.44H853.333V2133.33Z" stroke="#F8E71C" stroke-width="0.8"/>
<path d="M924.445 2133.33H853.333V2204.44H924.445V2133.33Z" stroke="#F8E71C" stroke-width="0.8"/>
<path d="M995.555 2133.33H924.444V2204.44H995.555V2133.33Z" stroke="#F8E71C" stroke-width="0.8"/>
<path d="M1066.67 2133.33H995.556V2204.44H1066.67V2133.33Z" stroke="#F8E71C" stroke-width="0.8"/>
<path d="M1137.78 2133.33H1066.67V2204.44H1137.78V2133.33Z" stroke="#F8E71C" stroke-width="0.8"/>
<path d="M1208.89 2133.33H1137.78V2204.44H1208.89V2133.33Z" stroke="#F8E71C" stroke-width="0.8"/>
<path d="M1280 2133.33H1208.89V2204.44H1280V2133.33Z" stroke="#F8E71C" stroke-width="0.8"/>
<path d="M1351.11 2133.33H1280V2204.44H1351.11V2133.33Z" stroke="#F8E71C" stroke-width="0.8"/>
<path d="M71.1111 2204.44H0V2275.56H71.1111V2204.44Z" stroke="#F8E71C" stroke-width="0.8"/>
<path d="M142.222 2204.44H71.1111V2275.56H142.222V2204.44Z" stroke="#F8E71C" stroke-width="0.8"/>
<path d="M213.333 2204.44H142.222V2275.56H213.333V2204.44Z" stroke="#F8E71C" stroke-width="0.8"/>
<path d="M284.444 2204.44H213.333V2275.56H284.444V2204.44Z" stroke="#F8E71C" stroke-width="0.8"/>
<path d="M355.555 2204.44H284.444V2275.56H355.555V2204.44Z" stroke="#F8E71C" stroke-width="0.8"/>
<path d="M426.667 2204.44H355.556V2275.56H426.667V2204.44Z" stroke="#F8E71C" stroke-width="0.8"/>
<path d="M497.778 2204.44H426.667V2275.56H497.778V2204.44Z" stroke="#F8E71C" stroke-width="0.8"/>
<path d="M568.889 2204.44H497.778V2275.56H568.889V2204.44Z" stroke="#F8E71C" stroke-width="0.8"/>
<path d="M640.001 2204.44H568.889V2275.56H640.001V2204.44Z" stroke="#F8E71C" stroke-width="0.8"/>
<path d="M711.111 2204.44H640V2275.56H711.111V2204.44Z" stroke="#F8E71C" stroke-width="0.8"/>
<path d="M782.222 2204.44H711.111V2275.56H782.222V2204.44Z" stroke="#F8E71C" stroke-width="0.8"/>
<path d="M853.333 2204.44H782.222V2275.56H853.333V2204.44Z" stroke="#F8E71C" stroke-width="0.8"/>
<path d="M924.445 2204.44H853.333V2275.56H924.445V2204.44Z" stroke="#F8E71C" stroke-width="0.8"/>
<path d="M995.555 2204.44H924.444V2275.56H995.555V2204.44Z" stroke="#F8E71C" stroke-width="0.8"/>
<path d="M1066.67 2204.44H995.556V2275.56H1066.67V2204.44Z" stroke="#F8E71C" stroke-width="0.8"/>
<path d="M1137.78 2204.44H1066.67V2275.56H1137.78V2204.44Z" stroke="#F8E71C" stroke-width="0.8"/>
<path d="M1208.89 2204.44H1137.78V2275.56H1208.89V2204.44Z" stroke="#F8E71C" stroke-width="0.8"/>
<path d="M1280 2204.44H1208.89V2275.56H1280V2204.44Z" stroke="#F8E71C" stroke-width="0.8"/>
<path d="M1351.11 2204.44H1280V2275.56H1351.11V2204.44Z" stroke="#F8E71C" stroke-width="0.8"/>
<path d="M71.1111 2275.56H0V2346.67H71.1111V2275.56Z" stroke="#F8E71C" stroke-width="0.8"/>
<path d="M142.222 2275.56H71.1111V2346.67H142.222V2275.56Z" stroke="#F8E71C" stroke-width="0.8"/>
<path d="M213.333 2275.56H142.222V2346.67H213.333V2275.56Z" stroke="#F8E71C" stroke-width="0.8"/>
<path d="M284.444 2275.56H213.333V2346.67H284.444V2275.56Z" stroke="#F8E71C" stroke-width="0.8"/>
<path d="M355.555 2275.56H284.444V2346.67H355.555V2275.56Z" stroke="#F8E71C" stroke-width="0.8"/>
<path d="M426.667 2275.56H355.556V2346.67H426.667V2275.56Z" stroke="#F8E71C" stroke-width="0.8"/>
<path d="M497.778 2275.56H426.667V2346.67H497.778V2275.56Z" stroke="#F8E71C" stroke-width="0.8"/>
<path d="M568.889 2275.56H497.778V2346.67H568.889V2275.56Z" stroke="#F8E71C" stroke-width="0.8"/>
<path d="M640.001 2275.56H568.889V2346.67H640.001V2275.56Z" stroke="#F8E71C" stroke-width="0.8"/>
<path d="M711.111 2275.56H640V2346.67H711.111V2275.56Z" stroke="#F8E71C" stroke-width="0.8"/>
<path d="M782.222 2275.56H711.111V2346.67H782.222V2275.56Z" stroke="#F8E71C" stroke-width="0.8"/>
<path d="M853.333 2275.56H782.222V2346.67H853.333V2275.56Z" stroke="#F8E71C" stroke-width="0.8"/>
<path d="M924.445 2275.56H853.333V2346.67H924.445V2275.56Z" stroke="#F8E71C" stroke-width="0.8"/>
<path d="M995.555 2275.56H924.444V2346.67H995.555V2275.56Z" stroke="#F8E71C" stroke-width="0.8"/>
<path d="M1066.67 2275.56H995.556V2346.67H1066.67V2275.56Z" stroke="#F8E71C" stroke-width="0.8"/>
<path d="M1137.78 2275.56H1066.67V2346.67H1137.78V2275.56Z" stroke="#F8E71C" stroke-width="0.8"/>
<path d="M1208.89 2275.56H1137.78V2346.67H1208.89V2275.56Z" stroke="#F8E71C" stroke-width="0.8"/>
<path d="M1280 2275.56H1208.89V2346.67H1280V2275.56Z" stroke="#F8E71C" stroke-width="0.8"/>
<path d="M1351.11 2275.56H1280V2346.67H1351.11V2275.56Z" stroke="#F8E71C" stroke-width="0.8"/>
<path d="M71.1111 2346.67H0V2417.78H71.1111V2346.67Z" stroke="#F8E71C" stroke-width="0.8"/>
<path d="M142.222 2346.67H71.1111V2417.78H142.222V2346.67Z" stroke="#F8E71C" stroke-width="0.8"/>
<path d="M213.333 2346.67H142.222V2417.78H213.333V2346.67Z" stroke="#F8E71C" stroke-width="0.8"/>
<path d="M284.444 2346.67H213.333V2417.78H284.444V2346.67Z" stroke="#F8E71C" stroke-width="0.8"/>
<path d="M355.555 2346.67H284.444V2417.78H355.555V2346.67Z" stroke="#F8E71C" stroke-width="0.8"/>
<path d="M426.667 2346.67H355.556V2417.78H426.667V2346.67Z" stroke="#F8E71C" stroke-width="0.8"/>
<path d="M497.778 2346.67H426.667V2417.78H497.778V2346.67Z" stroke="#F8E71C" stroke-width="0.8"/>
<path d="M568.889 2346.67H497.778V2417.78H568.889V2346.67Z" stroke="#F8E71C" stroke-width="0.8"/>
<path d="M640.001 2346.67H568.889V2417.78H640.001V2346.67Z" stroke="#F8E71C" stroke-width="0.8"/>
<path d="M711.111 2346.67H640V2417.78H711.111V2346.67Z" stroke="#F8E71C" stroke-width="0.8"/>
<path d="M782.222 2346.67H711.111V2417.78H782.222V2346.67Z" stroke="#F8E71C" stroke-width="0.8"/>
<path d="M853.333 2346.67H782.222V2417.78H853.333V2346.67Z" stroke="#F8E71C" stroke-width="0.8"/>
<path d="M924.445 2346.67H853.333V2417.78H924.445V2346.67Z" stroke="#F8E71C" stroke-width="0.8"/>
<path d="M995.555 2346.67H924.444V2417.78H995.555V2346.67Z" stroke="#F8E71C" stroke-width="0.8"/>
<path d="M1066.67 2346.67H995.556V2417.78H1066.67V2346.67Z" stroke="#F8E71C" stroke-width="0.8"/>
<path d="M1137.78 2346.67H1066.67V2417.78H1137.78V2346.67Z" stroke="#F8E71C" stroke-width="0.8"/>
<path d="M1208.89 2346.67H1137.78V2417.78H1208.89V2346.67Z" stroke="#F8E71C" stroke-width="0.8"/>
<path d="M1280 2346.67H1208.89V2417.78H1280V2346.67Z" stroke="#F8E71C" stroke-width="0.8"/>
<path d="M1351.11 2346.67H1280V2417.78H1351.11V2346.67Z" stroke="#F8E71C" stroke-width="0.8"/>
<path d="M71.1111 2417.78H0V2488.89H71.1111V2417.78Z" stroke="#F8E71C" stroke-width="0.8"/>
<path d="M142.222 2417.78H71.1111V2488.89H142.222V2417.78Z" stroke="#F8E71C" stroke-width="0.8"/>
<path d="M213.333 2417.78H142.222V2488.89H213.333V2417.78Z" stroke="#F8E71C" stroke-width="0.8"/>
<path d="M284.444 2417.78H213.333V2488.89H284.444V2417.78Z" stroke="#F8E71C" stroke-width="0.8"/>
<path d="M355.555 2417.78H284.444V2488.89H355.555V2417.78Z" stroke="#F8E71C" stroke-width="0.8"/>
<path d="M426.667 2417.78H355.556V2488.89H426.667V2417.78Z" stroke="#F8E71C" stroke-width="0.8"/>
<path d="M497.778 2417.78H426.667V2488.89H497.778V2417.78Z" stroke="#F8E71C" stroke-width="0.8"/>
<path d="M568.889 2417.78H497.778V2488.89H568.889V2417.78Z" stroke="#F8E71C" stroke-width="0.8"/>
<path d="M640.001 2417.78H568.889V2488.89H640.001V2417.78Z" stroke="#F8E71C" stroke-width="0.8"/>
<path d="M711.111 2417.78H640V2488.89H711.111V2417.78Z" stroke="#F8E71C" stroke-width="0.8"/>
<path d="M782.222 2417.78H711.111V2488.89H782.222V2417.78Z" stroke="#F8E71C" stroke-width="0.8"/>
<path d="M853.333 2417.78H782.222V2488.89H853.333V2417.78Z" stroke="#F8E71C" stroke-width="0.8"/>
<path d="M924.445 2417.78H853.333V2488.89H924.445V2417.78Z" stroke="#F8E71C" stroke-width="0.8"/>
<path d="M995.555 2417.78H924.444V2488.89H995.555V2417.78Z" stroke="#F8E71C" stroke-width="0.8"/>
<path d="M1066.67 2417.78H995.556V2488.89H1066.67V2417.78Z" stroke="#F8E71C" stroke-width="0.8"/>
<path d="M1137.78 2417.78H1066.67V2488.89H1137.78V2417.78Z" stroke="#F8E71C" stroke-width="0.8"/>
<path d="M1208.89 2417.78H1137.78V2488.89H1208.89V2417.78Z" stroke="#F8E71C" stroke-width="0.8"/>
<path d="M1280 2417.78H1208.89V2488.89H1280V2417.78Z" stroke="#F8E71C" stroke-width="0.8"/>
<path d="M1351.11 2417.78H1280V2488.89H1351.11V2417.78Z" stroke="#F8E71C" stroke-width="0.8"/>
<path d="M71.1111 2488.89H0V2560H71.1111V2488.89Z" stroke="#F8E71C" stroke-width="0.8"/>
<path d="M142.222 2488.89H71.1111V2560H142.222V2488.89Z" stroke="#F8E71C" stroke-width="0.8"/>
<path d="M213.333 2488.89H142.222V2560H213.333V2488.89Z" stroke="#F8E71C" stroke-width="0.8"/>
<path d="M284.444 2488.89H213.333V2560H284.444V2488.89Z" stroke="#F8E71C" stroke-width="0.8"/>
<path d="M355.555 2488.89H284.444V2560H355.555V2488.89Z" stroke="#F8E71C" stroke-width="0.8"/>
<path d="M426.667 2488.89H355.556V2560H426.667V2488.89Z" stroke="#F8E71C" stroke-width="0.8"/>
<path d="M497.778 2488.89H426.667V2560H497.778V2488.89Z" stroke="#F8E71C" stroke-width="0.8"/>
<path d="M568.889 2488.89H497.778V2560H568.889V2488.89Z" stroke="#F8E71C" stroke-width="0.8"/>
<path d="M640.001 2488.89H568.889V2560H640.001V2488.89Z" stroke="#F8E71C" stroke-width="0.8"/>
<path d="M711.111 2488.89H640V2560H711.111V2488.89Z" stroke="#F8E71C" stroke-width="0.8"/>
<path d="M782.222 2488.89H711.111V2560H782.222V2488.89Z" stroke="#F8E71C" stroke-width="0.8"/>
<path d="M853.333 2488.89H782.222V2560H853.333V2488.89Z" stroke="#F8E71C" stroke-width="0.8"/>
<path d="M924.445 2488.89H853.333V2560H924.445V2488.89Z" stroke="#F8E71C" stroke-width="0.8"/>
<path d="M995.555 2488.89H924.444V2560H995.555V2488.89Z" stroke="#F8E71C" stroke-width="0.8"/>
<path d="M1066.67 2488.89H995.556V2560H1066.67V2488.89Z" stroke="#F8E71C" stroke-width="0.8"/>
<path d="M1137.78 2488.89H1066.67V2560H1137.78V2488.89Z" stroke="#F8E71C" stroke-width="0.8"/>
<path d="M1208.89 2488.89H1137.78V2560H1208.89V2488.89Z" stroke="#F8E71C" stroke-width="0.8"/>
<path d="M1280 2488.89H1208.89V2560H1280V2488.89Z" stroke="#F8E71C" stroke-width="0.8"/>
<path d="M1351.11 2488.89H1280V2560H1351.11V2488.89Z" stroke="#F8E71C" stroke-width="0.8"/>
<path d="M71.1111 2560H0V2631.11H71.1111V2560Z" stroke="#F8E71C" stroke-width="0.8"/>
<path d="M142.222 2560H71.1111V2631.11H142.222V2560Z" stroke="#F8E71C" stroke-width="0.8"/>
<path d="M213.333 2560H142.222V2631.11H213.333V2560Z" stroke="#F8E71C" stroke-width="0.8"/>
<path d="M284.444 2560H213.333V2631.11H284.444V2560Z" stroke="#F8E71C" stroke-width="0.8"/>
<path d="M355.555 2560H284.444V2631.11H355.555V2560Z" stroke="#F8E71C" stroke-width="0.8"/>
<path d="M426.667 2560H355.556V2631.11H426.667V2560Z" stroke="#F8E71C" stroke-width="0.8"/>
<path d="M497.778 2560H426.667V2631.11H497.778V2560Z" stroke="#F8E71C" stroke-width="0.8"/>
<path d="M568.889 2560H497.778V2631.11H568.889V2560Z" stroke="#F8E71C" stroke-width="0.8"/>
<path d="M640.001 2560H568.889V2631.11H640.001V2560Z" stroke="#F8E71C" stroke-width="0.8"/>
<path d="M711.111 2560H640V2631.11H711.111V2560Z" stroke="#F8E71C" stroke-width="0.8"/>
<path d="M782.222 2560H711.111V2631.11H782.222V2560Z" stroke="#F8E71C" stroke-width="0.8"/>
<path d="M853.333 2560H782.222V2631.11H853.333V2560Z" stroke="#F8E71C" stroke-width="0.8"/>
<path d="M924.445 2560H853.333V2631.11H924.445V2560Z" stroke="#F8E71C" stroke-width="0.8"/>
<path d="M995.555 2560H924.444V2631.11H995.555V2560Z" stroke="#F8E71C" stroke-width="0.8"/>
<path d="M1066.67 2560H995.556V2631.11H1066.67V2560Z" stroke="#F8E71C" stroke-width="0.8"/>
<path d="M1137.78 2560H1066.67V2631.11H1137.78V2560Z" stroke="#F8E71C" stroke-width="0.8"/>
<path d="M1208.89 2560H1137.78V2631.11H1208.89V2560Z" stroke="#F8E71C" stroke-width="0.8"/>
<path d="M1280 2560H1208.89V2631.11H1280V2560Z" stroke="#F8E71C" stroke-width="0.8"/>
<path d="M1351.11 2560H1280V2631.11H1351.11V2560Z" stroke="#F8E71C" stroke-width="0.8"/>
</g>
<defs>
<clipPath id="clip0_412_1579">
<rect width="1280" height="1280" fill="white"/>
</clipPath>
<clipPath id="clip1_412_1579">
<rect width="1280" height="1280" fill="white" transform="translate(0 1280)"/>
</clipPath>
</defs>
</svg>
