<?xml version="1.0" standalone="no"?>
<!DOCTYPE svg PUBLIC "-//W3C//DTD SVG 20010904//EN"
 "http://www.w3.org/TR/2001/REC-SVG-20010904/DTD/svg10.dtd">
<svg version="1.0" xmlns="http://www.w3.org/2000/svg"
 width="1072.000000pt" height="1072.000000pt" viewBox="0 0 1072.000000 1072.000000"
 preserveAspectRatio="xMidYMid meet">
<metadata>
Created by potrace 1.14, written by Peter Selinger 2001-2017
</metadata>
<g transform="translate(0.000000,1072.000000) scale(0.100000,-0.100000)"
fill="#000000" stroke="none">
<path d="M5246 9463 c-2 -2 -27 -6 -57 -8 -30 -3 -65 -7 -79 -10 -14 -3 -36
-8 -50 -10 -14 -2 -35 -7 -47 -10 -13 -3 -31 -7 -41 -9 -44 -10 -108 -29 -117
-34 -5 -4 -17 -7 -25 -9 -20 -3 -194 -75 -200 -83 -4 -6 -36 -21 -50 -24 -3
-1 -25 -14 -50 -30 -25 -16 -64 -40 -87 -55 -24 -14 -43 -29 -43 -33 0 -5 -5
-8 -11 -8 -6 0 -16 -6 -24 -12 -7 -7 -32 -29 -56 -48 -76 -62 -198 -191 -264
-279 -35 -47 -64 -90 -63 -95 0 -5 -4 -12 -9 -15 -11 -8 -38 -50 -75 -120 -17
-31 -37 -63 -44 -72 -8 -8 -14 -18 -14 -21 0 -5 -203 -360 -249 -438 -22 -36
-156 -269 -179 -310 -14 -25 -28 -49 -32 -55 -7 -9 -27 -43 -67 -115 -8 -14
-25 -43 -38 -65 -13 -22 -32 -56 -43 -75 -10 -19 -58 -102 -105 -184 -48 -82
-87 -152 -87 -156 0 -5 -3 -10 -7 -12 -5 -1 -17 -19 -27 -38 -10 -19 -35 -62
-54 -95 -19 -33 -45 -78 -57 -100 -13 -22 -62 -107 -110 -190 -48 -82 -99
-170 -113 -195 -27 -48 -59 -103 -79 -135 -7 -11 -20 -36 -30 -55 -9 -19 -19
-37 -22 -40 -6 -5 -11 -13 -53 -89 -52 -93 -73 -127 -83 -133 -5 -4 -7 -8 -3
-8 6 0 -51 -103 -70 -125 -4 -5 -9 -14 -11 -20 -2 -5 -21 -41 -44 -80 -22 -38
-40 -71 -39 -73 1 -1 -2 -8 -8 -15 -20 -22 -108 -177 -102 -177 4 0 2 -4 -3
-8 -9 -6 -83 -130 -163 -272 -10 -19 -50 -87 -87 -150 -77 -132 -88 -151 -139
-242 -21 -37 -42 -70 -47 -74 -5 -3 -7 -9 -4 -14 3 -4 -2 -13 -10 -20 -8 -7
-15 -19 -15 -26 0 -8 -4 -14 -8 -14 -4 0 -13 -12 -20 -27 -7 -16 -18 -37 -25
-48 -6 -11 -37 -63 -67 -115 -30 -52 -60 -104 -67 -115 -7 -11 -17 -29 -23
-40 -5 -11 -23 -42 -40 -70 -16 -27 -35 -61 -42 -75 -7 -14 -17 -28 -23 -32
-5 -4 -7 -8 -3 -8 4 0 1 -8 -7 -17 -8 -10 -15 -20 -14 -23 0 -3 -20 -39 -45
-80 -25 -41 -46 -80 -46 -87 0 -7 -4 -13 -8 -13 -5 0 -16 -15 -25 -32 -9 -18
-31 -58 -49 -89 -18 -30 -70 -120 -116 -200 -46 -79 -87 -151 -92 -159 -37
-61 -90 -153 -90 -155 0 -2 -30 -54 -67 -117 -37 -62 -68 -115 -68 -118 0 -3
-8 -16 -16 -30 -16 -25 -43 -71 -81 -140 -11 -19 -35 -60 -53 -90 -18 -30 -46
-78 -62 -105 -40 -72 -154 -270 -177 -308 -10 -18 -29 -50 -40 -72 -12 -22
-29 -51 -38 -65 -31 -48 -69 -115 -81 -142 -6 -16 -15 -28 -19 -28 -4 0 -8 -9
-8 -20 0 -11 -4 -20 -8 -20 -4 0 -16 -28 -27 -62 -19 -63 -26 -214 -12 -283
27 -144 136 -295 263 -366 29 -17 56 -30 59 -30 3 1 18 -5 33 -13 42 -22 89
-29 192 -30 237 -2 410 116 540 369 6 11 20 36 31 55 12 19 60 103 107 185 47
83 88 152 91 155 3 3 21 34 40 70 19 36 40 72 47 81 8 8 14 19 14 23 0 4 9 21
21 37 11 16 17 29 12 29 -4 0 -3 4 3 8 6 4 31 42 55 85 24 43 49 86 54 95 14
23 101 176 133 232 14 25 33 57 43 72 11 14 19 28 19 31 0 2 58 104 129 225
71 122 126 224 123 227 -3 3 -1 5 5 5 6 0 23 24 37 53 15 28 35 66 45 82 10
17 69 118 131 225 62 107 120 209 130 225 84 144 120 207 120 213 0 3 6 13 14
21 8 9 26 39 41 66 14 28 34 64 44 80 10 17 29 51 44 77 27 48 63 110 85 143
6 11 15 27 19 35 4 8 24 43 45 78 21 34 38 67 38 72 0 6 4 10 8 10 4 0 13 12
19 28 7 15 25 50 42 77 17 28 39 65 49 83 l18 33 23 -43 c13 -24 62 -109 108
-190 45 -80 83 -151 83 -157 0 -6 5 -11 10 -11 6 0 10 -6 10 -14 0 -8 5 -16
11 -18 5 -2 11 -10 12 -18 2 -8 21 -46 44 -85 22 -38 55 -97 73 -130 49 -89
139 -248 150 -265 6 -8 13 -22 17 -30 4 -8 17 -32 30 -52 13 -21 36 -62 52
-90 48 -90 82 -150 124 -223 23 -38 40 -72 38 -74 -1 -2 1 -7 6 -10 5 -3 27
-37 48 -76 43 -79 48 -87 134 -240 33 -60 65 -117 71 -125 5 -8 27 -46 48 -85
75 -134 96 -171 188 -333 52 -90 94 -166 94 -168 0 -2 18 -33 40 -69 22 -36
40 -67 40 -69 0 -3 22 -42 48 -88 26 -46 51 -90 55 -98 4 -8 11 -22 17 -30 28
-42 120 -210 120 -219 0 -6 5 -11 10 -11 6 0 10 -4 10 -9 0 -5 25 -52 55 -105
30 -52 55 -98 55 -101 0 -3 8 -18 18 -33 11 -15 31 -45 45 -67 84 -128 236
-221 392 -241 28 -3 55 -6 60 -6 128 9 204 29 283 74 75 42 161 126 202 194
19 33 37 61 40 64 3 3 14 23 25 45 11 22 25 47 31 55 6 8 25 40 41 70 36 66
58 105 133 235 32 55 67 116 78 135 11 19 52 91 92 160 105 182 101 175 171
298 35 62 72 128 83 145 10 18 30 53 45 78 55 98 145 255 163 286 l19 32 57
-31 c31 -17 62 -34 67 -38 6 -4 27 -17 48 -29 84 -47 107 -61 172 -100 37 -23
68 -41 70 -41 2 0 50 -28 107 -61 56 -34 118 -70 136 -80 83 -48 103 -60 187
-110 50 -29 92 -54 95 -54 3 0 16 -8 30 -16 102 -64 128 -79 138 -79 7 0 12
-4 12 -9 0 -5 8 -11 18 -14 9 -4 35 -17 57 -30 71 -43 377 -222 550 -322 55
-31 111 -65 125 -73 14 -9 28 -15 33 -14 4 1 7 -2 7 -8 0 -5 5 -10 10 -10 9 0
78 -39 155 -88 11 -7 28 -15 38 -18 9 -4 17 -10 17 -15 0 -5 4 -9 9 -9 5 0 44
-20 85 -45 42 -25 81 -45 86 -45 6 0 10 -4 10 -10 0 -5 4 -10 9 -10 7 0 171
-94 391 -224 25 -15 53 -29 63 -33 9 -3 17 -9 17 -14 0 -5 6 -9 14 -9 7 0 19
-7 26 -15 7 -8 16 -12 21 -9 5 3 9 0 9 -5 0 -6 4 -11 9 -11 5 0 42 -20 83 -45
155 -94 252 -134 332 -138 25 -1 46 -6 46 -10 0 -5 4 -6 9 -2 6 3 36 7 68 10
88 7 111 13 200 58 121 59 231 182 272 304 67 200 40 353 -106 585 -13 21 -23
42 -23 48 0 5 -4 10 -10 10 -5 0 -10 4 -10 10 0 5 -42 80 -93 167 -50 87 -103
179 -117 206 -14 26 -28 47 -32 47 -5 0 -8 4 -8 10 0 5 -14 33 -31 62 -18 29
-40 68 -50 86 -11 17 -27 47 -38 65 -10 17 -31 55 -48 82 -16 28 -32 57 -36
65 -4 8 -16 29 -27 45 -11 17 -23 37 -27 45 -3 8 -14 26 -23 40 -9 14 -30 50
-47 80 -56 103 -106 185 -117 192 -6 4 -8 8 -4 8 3 0 -76 141 -176 314 -101
172 -186 319 -189 327 -4 8 -16 28 -26 44 -16 27 -95 161 -141 240 -9 17 -29
50 -44 75 -15 25 -29 53 -33 63 -3 9 -9 17 -14 17 -5 0 -9 4 -9 9 0 13 -82
155 -92 159 -4 2 -8 12 -8 22 0 10 -3 20 -8 22 -6 2 -49 75 -152 253 -9 17
-99 170 -198 342 -100 171 -182 317 -182 322 0 6 -3 11 -8 11 -4 0 -18 21 -32
48 -14 26 -49 87 -77 135 -29 48 -53 92 -53 97 0 6 -4 10 -10 10 -5 0 -10 4
-10 9 0 6 -29 60 -65 121 -36 61 -65 115 -65 120 0 4 -3 10 -8 12 -6 2 -62 95
-154 258 -37 63 -170 293 -235 403 -34 59 -63 110 -63 113 0 3 -15 29 -34 57
-18 29 -63 104 -99 167 -80 142 -184 320 -197 340 -6 8 -15 27 -21 43 -6 15
-15 27 -20 27 -5 0 -9 5 -9 10 0 6 -11 27 -23 48 -13 20 -35 57 -49 82 -14 25
-48 84 -77 132 -28 48 -51 91 -51 97 0 6 -4 11 -10 11 -5 0 -10 7 -10 15 0 8
-5 15 -11 15 -5 0 -8 4 -5 9 3 5 -1 14 -9 21 -8 7 -15 16 -15 21 0 7 -31 61
-78 134 -6 11 -15 27 -19 35 -3 8 -27 51 -53 95 -27 44 -79 134 -118 200 -185
317 -395 528 -678 681 -176 95 -395 164 -604 190 -56 7 -328 13 -334 7z m269
-1132 c113 -27 268 -130 323 -216 36 -57 56 -91 57 -95 1 -10 49 -85 59 -92 6
-4 8 -8 4 -8 -4 0 15 -36 42 -81 28 -44 50 -82 50 -85 0 -2 20 -37 43 -77 109
-181 227 -387 227 -397 0 -6 7 -13 15 -16 8 -4 15 -12 15 -19 0 -8 23 -50 50
-95 28 -45 55 -91 61 -103 5 -12 31 -58 59 -102 27 -44 49 -86 50 -92 0 -7 5
-13 10 -13 6 0 10 -7 10 -15 0 -8 5 -15 11 -15 5 0 8 -4 5 -9 -3 -5 1 -14 9
-21 8 -7 15 -17 15 -22 0 -6 8 -22 19 -36 10 -15 33 -54 51 -87 18 -33 45 -78
59 -100 14 -22 26 -42 26 -45 0 -3 24 -45 53 -93 28 -49 52 -93 52 -98 0 -5 5
-9 10 -9 6 0 10 -5 10 -10 0 -6 19 -43 43 -83 24 -39 57 -94 73 -122 16 -27
34 -59 41 -70 7 -11 15 -27 19 -35 4 -8 25 -43 46 -78 21 -34 38 -67 38 -72 0
-6 5 -10 11 -10 5 0 8 -4 5 -9 -3 -5 1 -14 9 -21 8 -7 15 -19 15 -26 0 -8 5
-14 10 -14 6 0 10 -4 10 -10 0 -5 14 -33 31 -62 18 -29 40 -68 50 -85 45 -78
60 -105 80 -140 12 -21 25 -42 29 -48 5 -5 23 -37 41 -70 18 -33 35 -62 38
-65 3 -3 13 -18 21 -35 8 -16 32 -58 53 -92 20 -35 37 -67 37 -73 0 -5 5 -10
10 -10 6 0 10 -5 10 -10 0 -6 20 -43 44 -83 24 -39 51 -87 61 -106 9 -19 21
-39 26 -45 6 -6 33 -51 61 -101 28 -49 62 -108 75 -130 13 -22 26 -48 30 -57
3 -10 9 -18 14 -18 5 0 9 -4 9 -9 0 -9 17 -39 85 -153 5 -9 21 -36 34 -60 13
-24 29 -52 35 -63 6 -11 19 -31 28 -45 9 -14 29 -48 45 -76 66 -120 137 -240
152 -258 9 -10 15 -21 15 -25 -2 -5 49 -93 155 -271 11 -19 30 -53 41 -75 11
-22 27 -50 36 -63 21 -28 9 -27 -41 3 -59 36 -176 104 -210 123 -16 9 -33 22
-37 27 -4 6 -8 6 -8 2 0 -4 -20 6 -44 23 -25 16 -49 30 -55 30 -6 0 -11 5 -11
10 0 6 -5 10 -10 10 -6 0 -104 55 -218 122 -114 66 -220 128 -237 136 -16 8
-37 20 -45 27 -8 7 -35 23 -60 36 -25 13 -47 26 -50 29 -3 3 -14 10 -25 16
-56 30 -91 50 -95 54 -5 5 -41 26 -93 53 -12 7 -33 20 -47 28 -42 27 -225 133
-230 134 -3 0 -16 8 -30 16 -52 32 -80 49 -113 68 -19 10 -45 25 -58 33 -13 7
-31 18 -39 24 -8 6 -37 24 -65 39 -53 29 -378 220 -583 342 -67 40 -127 73
-132 73 -6 0 -10 5 -10 10 0 6 -5 10 -10 10 -6 0 -70 36 -143 79 -73 43 -148
88 -167 99 -19 11 -81 47 -138 81 -57 33 -108 61 -113 61 -5 0 -9 4 -9 9 0 5
-11 12 -25 15 -14 4 -25 11 -25 16 0 6 -6 10 -13 10 -7 0 -28 10 -47 23 -19
13 -60 37 -90 53 -30 16 -64 37 -74 47 -11 9 -23 17 -28 17 -5 0 -41 20 -81
44 -39 24 -88 51 -107 61 -19 10 -37 21 -40 24 -3 4 -16 12 -30 19 -14 7 -34
18 -45 25 -11 7 -49 29 -85 50 -36 21 -72 42 -80 47 -34 21 -216 126 -230 133
-8 4 -28 16 -45 27 -16 10 -41 25 -55 33 -14 8 -65 38 -115 67 -49 29 -106 61
-125 72 -19 11 -72 42 -116 69 -45 27 -84 49 -87 49 -3 0 -29 16 -58 35 -30
19 -48 35 -41 35 6 0 12 4 12 9 0 5 79 145 175 312 96 166 175 306 175 310 0
4 8 13 18 18 9 6 13 11 9 11 -5 0 0 15 11 33 43 70 154 265 161 282 2 6 7 12
11 15 4 3 20 30 37 60 50 91 77 135 85 138 4 2 8 10 8 18 0 7 15 37 33 66 19
29 47 78 64 108 36 66 192 337 271 470 108 182 236 277 413 308 59 11 163 7
224 -7z m-917 -3918 c15 -10 29 -20 32 -23 3 -3 23 -14 45 -25 22 -11 42 -22
45 -25 3 -3 26 -17 53 -30 26 -14 47 -28 47 -32 0 -5 4 -8 10 -8 5 0 55 -27
111 -60 55 -33 105 -60 110 -60 5 0 9 -4 9 -10 0 -5 4 -10 10 -10 13 0 184
-101 188 -112 2 -4 9 -8 16 -8 7 0 29 -11 49 -24 19 -13 38 -22 41 -18 3 3 6
0 6 -6 0 -7 7 -12 15 -12 8 0 15 -4 15 -10 0 -5 4 -10 10 -10 5 0 33 -14 62
-31 49 -30 78 -46 139 -81 13 -7 26 -16 29 -19 3 -3 17 -12 32 -20 59 -31 138
-79 138 -85 0 -10 -34 -69 -45 -76 -5 -4 -7 -8 -3 -8 3 0 -17 -39 -46 -87 -29
-49 -55 -95 -59 -103 -4 -8 -21 -37 -38 -65 -16 -27 -33 -58 -36 -67 -3 -10
-9 -18 -13 -18 -5 0 -10 -6 -12 -14 -4 -18 -162 -296 -168 -296 -5 0 -25 33
-94 155 -235 415 -337 596 -352 625 -11 19 -21 37 -24 40 -3 3 -12 19 -21 35
-51 94 -85 154 -106 187 -12 21 -23 40 -23 42 0 3 -15 31 -34 63 -74 127 -98
169 -109 196 -6 15 -15 27 -19 27 -4 0 -8 6 -8 13 0 7 -11 29 -25 50 -28 40
-20 47 23 20z"/>
</g>
</svg>
