<svg width="134" height="103" viewBox="0 0 134 103" fill="none" xmlns="http://www.w3.org/2000/svg">
<path d="M126.804 95.7608L123.279 101.808C126.023 103.408 129.501 102.959 131.75 100.715C133.998 98.4699 134.453 94.9926 132.857 92.2453L126.804 95.7608ZM1.9378 92.374C0.00479896 95.722 1.15192 100.003 4.49997 101.936C7.84802 103.869 12.1292 102.722 14.0622 99.374L1.9378 92.374ZM67.3039 95.7608L61.2089 99.2032C62.4464 101.394 64.7649 102.753 67.2814 102.761C69.7978 102.769 72.125 101.426 73.3767 99.2425L67.3039 95.7608ZM67.2892 61L70.8352 54.9646L70.8277 54.9602L70.8203 54.9559L67.2892 61ZM49.1094 10.6703L31.9482 40.3944L44.0726 47.3944L61.2338 17.6703L49.1094 10.6703ZM31.9482 40.3944L1.9378 92.374L14.0622 99.374L44.0726 47.3944L31.9482 40.3944ZM31.9153 47.3368L61.2089 99.2032L73.399 92.3184L44.1054 40.452L31.9153 47.3368ZM73.3492 17.6549L120.751 99.2762L132.857 92.2453L85.4557 10.6241L73.3492 17.6549ZM73.3767 99.2425L88.2807 73.247L76.1353 66.2836L61.2312 92.2791L73.3767 99.2425ZM78.6828 75.8129L123.279 101.808L130.329 89.7132L85.7332 63.7178L78.6828 75.8129ZM34.4792 49.9385L63.758 67.0441L70.8203 54.9559L41.5415 37.8503L34.4792 49.9385ZM63.7432 67.0354L78.662 75.8007L85.754 63.7299L70.8352 54.9646L63.7432 67.0354ZM61.2338 17.6703C63.9241 13.0105 70.647 13.002 73.3492 17.6549L85.4557 10.6241C77.3491 -3.33475 57.1804 -3.30909 49.1094 10.6703L61.2338 17.6703Z" fill="white"/>
</svg>
